<?xml version="1.0" encoding="UTF-8"?>
<!DOCTYPE svg PUBLIC "-//W3C//DTD SVG 1.1//EN" "http://www.w3.org/Graphics/SVG/1.1/DTD/svg11.dtd">
<!-- Creator: CorelDRAW X7 -->
<svg xmlns="http://www.w3.org/2000/svg" xml:space="preserve" width="14.5346mm" height="11.1614mm" version="1.1" style="shape-rendering:geometricPrecision; text-rendering:geometricPrecision; image-rendering:optimizeQuality; fill-rule:evenodd; clip-rule:evenodd"
viewBox="0 0 35 27"
 xmlns:xlink="http://www.w3.org/1999/xlink">
 <defs>
  <style type="text/css">
   <![CDATA[
    .fil0 {fill:#E68750}
    .fil1 {fill:#D3DF4E}
    .fil3 {fill:#A6D061}
    .fil2 {fill:#426254}
    .fil4 {fill:#129F54}
   ]]>
  </style>
 </defs>
 <g id="Capa_x0020_1">
  <metadata id="CorelCorpID_0Corel-Layer"/>
  <g id="_664209176">
   <path class="fil0" d="M20 25c0,0 1,0 1,1 2,-2 8,-2 9,-4 0,0 -1,-2 -1,-3 -2,-2 -3,0 -5,2 -2,1 -3,3 -4,4z"/>
   <path class="fil0" d="M14 23c0,0 1,0 2,0 0,0 1,1 1,1 -1,-1 -1,-4 -2,-6 0,-2 0,-4 -3,-3 -2,1 -4,2 -1,4 0,0 3,3 3,4z"/>
   <path class="fil0" d="M1 24c0,0 2,-1 2,-1 1,-2 4,-8 10,-11 0,0 -2,0 -3,0 -3,1 -9,9 -9,12z"/>
   <path class="fil0" d="M15 15c0,1 2,7 2,8 1,-1 3,-7 3,-8 0,0 0,0 -1,0 1,0 0,2 0,3 1,0 1,-2 2,-3 0,-1 -1,-2 -2,-2 -2,0 -4,0 -4,2z"/>
   <path class="fil1" d="M14 10l1 0c-1,-1 -2,-2 -3,-2 2,0 3,1 4,2 0,-5 -5,-5 -9,-5l0 0c0,2 1,3 3,3 1,1 3,2 4,2z"/>
   <path class="fil0" d="M32 23l2 -1c0,-2 -4,-8 -8,-10l-1 2c4,2 6,4 7,9z"/>
   <path class="fil0" d="M19 24c1,0 7,-5 7,-7 0,-1 -1,-2 -2,-2l-5 9z"/>
   <path class="fil0" d="M6 23c3,-1 6,-1 7,0 0,-1 -3,-4 -4,-5 -1,0 -2,1 -2,2 -1,0 -2,1 -1,3z"/>
   <path class="fil0" d="M16 12c3,-1 5,0 7,0l1 -1c-2,-1 -4,-1 -5,-1 -1,0 -2,1 -3,2z"/>
   <path class="fil2" d="M14 10c-2,1 -4,0 -5,-1 -1,-1 -2,-2 -3,-4l0 0c0,2 1,4 3,5 1,1 4,2 6,1l0 -1c0,0 -1,0 -1,0z"/>
   <path class="fil1" d="M16 8c0,0 0,0 1,-1 0,0 1,-2 1,-3 0,0 0,-1 0,-1l-1 -1c0,1 -1,2 -2,3 0,1 0,1 1,2 0,0 0,0 0,1z"/>
   <path class="fil3" d="M6 5c1,2 2,3 3,4 1,1 3,2 5,1l0 0c-1,0 -3,-1 -4,-2 -2,0 -3,-1 -3,-3l0 0c0,0 0,0 0,0 -1,0 -1,0 -1,0z"/>
   <path class="fil2" d="M18 3c0,2 0,2 0,4 0,2 -2,2 -2,3 1,0 2,-2 3,-3 0,-2 -1,-3 -1,-4 0,0 0,-1 0,0z"/>
   <path class="fil3" d="M16 8c0,0 0,0 0,1 1,-1 1,-1 2,-2 0,-1 0,-2 0,-3 0,1 -1,3 -1,3 -1,1 -1,1 -1,1z"/>
   <path class="fil4" d="M18 3c0,-1 0,0 0,0 0,1 1,2 1,4 -1,1 -2,3 -3,3 0,-1 2,-1 2,-3 -1,1 -1,1 -2,2 0,-1 0,-1 0,-1 0,-1 0,-1 0,-1 -1,-1 -1,-1 -1,-2 1,-1 2,-2 2,-3l1 1zm4 24c-3,0 -6,-2 -9,-3 -2,-1 -4,-1 -7,-1 0,0 -1,0 -2,0 5,-2 9,-1 13,1l7 -13c-2,-1 -4,-1 -5,-1 -2,2 -5,3 -9,2 -3,1 -9,9 -9,12l-1 0c0,-3 3,-10 8,-13 0,0 -1,-1 -2,-1 -1,-2 -1,-5 -1,-7 0,0 1,1 4,1 2,0 3,0 5,1 0,-1 1,-2 1,-2 1,-1 2,-3 2,-3 1,0 2,3 2,4 1,2 1,2 0,4 4,1 4,1 5,1 1,-2 3,-5 3,-7 2,-3 4,0 7,0l0 2c-5,-2 -5,-2 -6,1 -3,7 -6,13 -9,20 0,0 1,0 2,1 5,0 8,-2 11,-3l2 -1c0,-3 -5,-9 -8,-10l0 -1c5,1 9,8 9,12 -3,2 -9,4 -13,4zm-16 -22c0,0 0,0 1,0 0,0 0,0 0,0 4,0 9,0 9,5 -1,-1 -2,-2 -4,-2 1,0 2,1 3,2l-1 0 0 0c0,0 1,0 1,0l0 1c-2,1 -5,0 -6,-1 -2,-1 -3,-3 -3,-5l0 0z"/>
   <path class="fil4" d="M31 9c1,0 1,1 1,2 0,1 0,2 -1,2 -1,0 -2,-1 -2,-2 0,-1 1,-2 2,-2z"/>
   <path class="fil0" d="M31 10c0,0 1,0 1,1 0,1 -1,1 -1,1 -1,0 -2,0 -2,-1 0,-1 1,-1 2,-1z"/>
   <path class="fil4" d="M30 7c0,0 1,0 1,1 0,1 -1,1 -1,1 -1,0 -1,0 -1,-1 0,-1 0,-1 1,-1z"/>
   <path class="fil0" d="M30 7c0,0 1,1 1,1 0,1 -1,1 -1,1 -1,0 -1,0 -1,-1 0,0 0,-1 1,-1z"/>
   <path class="fil4" d="M32 6c1,0 1,1 1,1 0,1 0,1 -1,1 -1,0 -1,0 -1,-1 0,0 0,-1 1,-1z"/>
   <path class="fil0" d="M32 6c1,0 1,1 1,1 0,1 0,1 -1,1 0,0 -1,0 -1,-1 0,0 1,-1 1,-1z"/>
   <path class="fil4" d="M31 4c1,0 1,0 1,1 0,1 0,1 -1,1 0,0 -1,0 -1,-1 0,-1 1,-1 1,-1z"/>
   <path class="fil0" d="M31 4c1,0 1,1 1,1 0,0 0,1 -1,1 0,0 0,-1 0,-1 0,0 0,-1 0,-1z"/>
  </g>
 </g>
</svg>
