
<!-- Generator: visioncortex VTracer 0.6.4 -->
<svg version="1.1" xmlns="http://www.w3.org/2000/svg" viewBox="0 0 460 353" preserveAspectRatio="xMidYMid meet">
<path d="M0 0 C8.482 1.187 13.92 8.535 18.922 15.004 C32.737 34.922 43.571 60.357 39.176 84.941 C37.682 92.686 35.954 100.359 34 108 C36.383 109.191 38.237 109.316 40.891 109.578 C51.741 110.721 62.419 112.058 73.062 114.5 C73.946 114.701 74.83 114.903 75.741 115.11 C79.734 116.065 83.548 117.154 87.371 118.656 C90.98 120.231 90.98 120.231 95 120 C102.426 104.868 109.777 89.717 116.625 74.312 C117.149 73.136 117.673 71.96 118.212 70.748 C119.27 68.372 120.328 65.996 121.385 63.62 C123.899 57.985 126.422 52.356 128.989 46.745 C129.779 45.012 130.558 43.273 131.336 41.534 C136.398 30.511 142.75 17.05 154.48 11.914 C170.103 6.762 184.819 14.166 199.049 20.272 C207.226 23.758 215.444 26.609 224 29 C223.404 34.266 222.187 38.944 220.438 43.938 C220.204 44.621 219.97 45.305 219.729 46.01 C219.158 47.675 218.58 49.338 218 51 C213.146 49.541 208.618 47.54 204.004 45.47 C185.629 36.421 185.629 36.421 165.777 35.523 C155.118 40.457 151.625 54.055 147.234 64.17 C139.114 82.79 130.603 101.218 121.918 119.579 C121.583 120.288 121.248 120.996 120.902 121.727 C120.569 122.43 120.237 123.134 119.894 123.859 C117.269 129.413 114.688 134.986 112.117 140.565 C104.931 156.157 97.437 171.59 89.91 187.018 C87.179 192.622 84.487 198.244 81.812 203.875 C63.075 243.178 43.524 282.084 24 321 C25.052 321.144 26.104 321.289 27.188 321.438 C31 322 31 322 33.441 322.791 C36.12 323.282 36.12 323.282 38.332 321.383 C39.131 320.567 39.931 319.751 40.755 318.91 C41.67 317.992 42.585 317.073 43.527 316.127 C44.514 315.106 45.501 314.084 46.488 313.062 C47.514 312.023 48.542 310.984 49.571 309.947 C52.282 307.207 54.975 304.451 57.664 301.689 C60.91 298.363 64.174 295.054 67.438 291.745 C69.983 289.164 72.525 286.58 75.056 283.985 C80.177 278.747 85.384 273.708 91 269 C91.754 268.362 92.508 267.724 93.285 267.066 C93.872 266.57 94.458 266.074 95.062 265.562 C99.108 262.019 102.513 258.082 106 254 C122.37 235.053 122.37 235.053 131.98 233.727 C138.351 233.433 142.15 234.897 147 239 C158.471 249.486 169.808 268.079 171.375 283.75 C171.252 288.856 169.425 292.268 166 296 C149.75 309.532 126.243 312.18 106.244 316.44 C103.07 317.119 99.898 317.807 96.726 318.495 C94.449 318.984 92.168 319.459 89.888 319.933 C79.858 322.07 70.5 325.147 61 329 C63.782 331.782 72.822 330.247 76.875 330.25 C77.606 330.251 78.337 330.251 79.09 330.252 C90.641 330.235 101.718 329.6 113 327 C113.749 326.834 114.498 326.667 115.27 326.496 C124.445 324.414 133.325 321.647 142.156 318.414 C143.101 318.069 144.046 317.724 145.02 317.369 C155.854 313.373 166.52 308.98 177.188 304.562 C180.147 303.341 183.107 302.122 186.067 300.903 C187.884 300.154 189.7 299.404 191.516 298.652 C192.326 298.318 193.135 297.984 193.969 297.639 C195.032 297.199 195.032 297.199 196.117 296.75 C197.723 296.11 199.36 295.547 201 295 C198.946 278.922 192.707 264.116 185 250 C184.134 248.395 184.134 248.395 183.25 246.758 C176.383 234.517 167.622 224.114 158 214 C157.38 213.316 156.76 212.631 156.121 211.926 C142.008 196.866 122.972 185.794 105 176 C105.942 170.64 107.927 165.982 110.062 161 C110.659 159.605 110.659 159.605 111.267 158.181 C114.558 150.658 118.38 143.785 123 137 C152.178 147.604 177.12 169.773 196 194 C196.801 195.007 197.601 196.014 198.426 197.051 C218.927 223.024 236.149 253.47 242.188 286.312 C242.35 287.107 242.512 287.902 242.679 288.72 C243.313 292.671 243.477 294.31 241.141 297.691 C237.102 300.66 232.938 303.186 228.562 305.625 C227.635 306.146 226.708 306.666 225.752 307.203 C176.113 334.815 101.933 365.395 43.988 349.446 C26.599 344.245 10.285 335.588 -5.375 326.562 C-49.36 301.237 -100.547 286.272 -151.098 299.414 C-154.138 300.028 -156.906 300.101 -160 300 C-160 299.34 -160 298.68 -160 298 C-154.39 296.02 -148.78 294.04 -143 292 C-143.082 289.752 -143.165 287.504 -143.25 285.188 C-143.701 272.89 -137.988 263.669 -131.25 253.75 C-130.572 252.714 -129.894 251.677 -129.195 250.609 C-119.795 236.598 -119.795 236.598 -112 234 C-103.445 233.144 -97.5 236.587 -91.031 241.844 C-84.823 247.003 -79.119 252.611 -73.446 258.348 C-71.743 260.069 -70.033 261.782 -68.32 263.494 C-61.799 270.036 -55.491 276.656 -49.699 283.863 C-44.677 289.978 -40.745 292.539 -33 294 C-37.804 288.372 -42.82 283.032 -48.059 277.809 C-49.181 276.685 -49.181 276.685 -50.325 275.539 C-51.896 273.967 -53.469 272.397 -55.042 270.827 C-57.431 268.444 -59.814 266.055 -62.197 263.666 C-63.734 262.13 -65.271 260.594 -66.809 259.059 C-67.862 258.002 -67.862 258.002 -68.937 256.924 C-72.93 252.95 -77.021 249.155 -81.305 245.494 C-87.76 239.805 -93.07 232.464 -95 224 C-95.382 217.943 -93.958 213.669 -90 209 C-80.788 199.01 -62.276 187.968 -48.633 186.797 C-42.471 186.682 -38.461 187.213 -33.516 191.195 C-16.568 207.881 -13.667 247.282 -9.233 269.775 C-7.35 279.229 -5.162 288.386 -2.137 297.544 C-0.997 301.01 0.018 304.486 1 308 C0.67 308.33 0.34 308.66 0 309 C1.32 309.66 2.64 310.32 4 311 C4.541 309.179 4.541 309.179 5.094 307.32 C7.252 300.86 10.401 294.925 13.5 288.875 C14.781 286.349 16.057 283.821 17.332 281.293 C17.65 280.665 17.967 280.036 18.295 279.389 C21.001 274.023 23.614 268.618 26.188 263.188 C31.119 252.799 36.146 242.46 41.188 232.125 C42.833 228.75 44.479 225.375 46.125 222 C46.533 221.163 46.941 220.327 47.361 219.465 C61.364 190.82 61.364 190.82 75 162 C46.488 150.252 16.133 143.715 -13.762 155.047 C-15.315 155.714 -16.867 156.383 -18.418 157.055 C-25.727 159.731 -33.683 160.962 -41.438 161.312 C-61.928 162.993 -84.37 177.365 -100 190 C-100.58 190.469 -101.161 190.938 -101.759 191.421 C-114.725 202.022 -125.975 213.598 -136 227 C-136.427 227.561 -136.853 228.121 -137.293 228.699 C-151.868 247.898 -162.73 270.038 -170.262 292.88 C-170.564 293.765 -170.865 294.65 -171.176 295.562 C-171.433 296.348 -171.69 297.133 -171.954 297.941 C-174.39 302.736 -179.029 303.909 -183.855 305.594 C-184.517 305.827 -185.178 306.059 -185.859 306.299 C-187.966 307.039 -190.077 307.77 -192.188 308.5 C-193.587 308.99 -194.986 309.481 -196.385 309.973 C-203.237 312.375 -210.103 314.729 -217 317 C-216.279 289.165 -208.211 262.925 -196 238 C-195.594 237.169 -195.188 236.338 -194.77 235.482 C-177.362 200.24 -151.431 164.324 -115 147 C-118.17 142.509 -121.489 138.438 -125.309 134.499 C-131.977 127.584 -136.745 120.596 -141 112 C-141.797 110.405 -141.797 110.405 -142.609 108.777 C-153.271 85.722 -158.269 58.304 -157 33 C-152.55 33.554 -149.811 35.255 -146.125 37.75 C-131.44 47.206 -115.321 48.92 -98.25 49.438 C-78.61 50.07 -60.878 54.694 -42 60 C-40.573 58.416 -39.146 56.831 -37.719 55.246 C-36.924 54.364 -36.129 53.481 -35.311 52.572 C-32.171 49.077 -29.063 45.562 -26 42 C-25.33 41.243 -24.659 40.486 -23.969 39.707 C-17.766 32.476 -13.388 24.937 -9.062 16.5 C-8.076 14.606 -7.086 12.714 -6.096 10.823 C-5.212 9.13 -4.336 7.433 -3.461 5.736 C-2 3 -2 3 0 0 Z " fill="#129E53" transform="translate(217,0)"/>
<path d="M0 0 C14.279 8.126 25.046 27.852 29.551 43.297 C30.614 48.467 30.644 52.634 28.137 57.297 C15.624 75.058 -15.278 77.514 -34.807 81.675 C-37.981 82.353 -41.153 83.041 -44.325 83.729 C-46.602 84.219 -48.882 84.693 -51.163 85.167 C-59.279 86.897 -66.945 89.056 -74.631 92.216 C-80.023 94.401 -85.401 96.037 -91.164 94.492 C-91.854 94.313 -92.545 94.134 -93.256 93.949 C-93.951 93.755 -94.647 93.56 -95.363 93.359 C-96.078 93.172 -96.793 92.986 -97.529 92.793 C-102.662 91.429 -102.662 91.429 -105.051 90.234 C-103.547 86.718 -101.516 84.452 -98.82 81.76 C-97.945 80.882 -97.07 80.004 -96.168 79.1 C-95.21 78.148 -94.252 77.197 -93.293 76.246 C-92.306 75.26 -91.319 74.274 -90.332 73.287 C-88.262 71.218 -86.189 69.153 -84.113 67.091 C-81.472 64.467 -78.838 61.837 -76.206 59.204 C-74.166 57.164 -72.124 55.127 -70.08 53.091 C-69.109 52.123 -68.139 51.155 -67.169 50.186 C-61.632 44.658 -56.026 39.288 -50.051 34.234 C-49.297 33.596 -48.543 32.958 -47.766 32.301 C-47.179 31.804 -46.593 31.308 -45.988 30.797 C-41.943 27.253 -38.538 23.317 -35.051 19.234 C-13.937 -5.203 -13.937 -5.203 0 0 Z " fill="#E5864F" transform="translate(358.05078125,234.765625)"/>
<path d="M0 0 C20.828 14.674 23.887 58.227 28.517 81.712 C30.4 91.166 32.588 100.323 35.613 109.481 C36.753 112.948 37.768 116.423 38.75 119.938 C35.244 119.367 32.596 118.471 29.5 116.75 C26.289 115.051 23.184 113.712 19.707 112.695 C18.622 112.365 18.622 112.365 17.515 112.028 C16.104 111.61 14.684 111.221 13.255 110.872 C6.807 108.916 3.243 104.488 -1.057 99.542 C-4.622 95.455 -8.428 91.626 -12.262 87.793 C-12.966 87.087 -13.67 86.382 -14.396 85.655 C-15.843 84.208 -17.291 82.762 -18.74 81.318 C-20.948 79.115 -23.151 76.906 -25.354 74.697 C-26.781 73.271 -28.209 71.844 -29.637 70.418 C-30.283 69.77 -30.929 69.122 -31.594 68.454 C-35.445 64.623 -39.408 60.984 -43.534 57.452 C-50.413 51.381 -56.808 42.955 -57.402 33.52 C-56.954 26.65 -53.873 22.326 -49 17.625 C-36.895 7.421 -16.203 -5.297 0 0 Z " fill="#E5864F" transform="translate(179.25,188.0625)"/>
<path d="M0 0 C1.157 0.745 1.157 0.745 2.337 1.505 C13.08 7.709 22.426 7.932 34.625 7.75 C58.937 7.578 84.834 8.762 105 24 C105.651 24.459 106.302 24.918 106.973 25.391 C115.14 31.637 120.485 41.759 122.566 51.707 C123.083 55.627 123.109 59.428 123.062 63.375 C123.058 64.111 123.053 64.847 123.049 65.605 C123.037 67.404 123.019 69.202 123 71 C118.495 67.87 114.453 64.563 110.625 60.625 C100.499 50.29 89.947 42.895 76 39 C76.518 39.311 77.036 39.622 77.57 39.943 C104.711 56.358 104.711 56.358 106.773 63.785 C106.886 64.882 106.886 64.882 107 66 C104.568 66.982 102.134 67.955 99.691 68.91 C97.569 69.769 95.492 70.741 93.438 71.75 C78.207 77.297 60.014 71.179 46.125 64.75 C38.992 61.303 32.788 57.468 27 52 C26.334 51.422 25.667 50.845 24.98 50.25 C12.525 38.851 1.724 19.721 -1 3 C-0.67 2.01 -0.34 1.02 0 0 Z " fill="#D1DE4E" transform="translate(81,60)"/>
<path d="M0 0 C4.862 5.236 5.424 9.558 5.332 16.504 C4.39 26.421 0.033 35.393 -4.5 44.125 C-4.867 44.836 -5.235 45.546 -5.613 46.278 C-7.925 50.549 -10.299 53.829 -14 57 C-14.66 57 -15.32 57 -16 57 C-14.357 47.942 -12.348 39.142 -9.626 30.344 C-8.159 25.393 -7.785 21.166 -8 16 C-8.157 16.802 -8.157 16.802 -8.316 17.619 C-21.601 84.51 -21.601 84.51 -38 110 C-39.485 110.99 -39.485 110.99 -41 112 C-44.11 106.094 -46.522 100.206 -48.625 93.875 C-48.96 92.867 -49.295 91.86 -49.64 90.821 C-72.343 20.6 -72.343 20.6 -65.637 4.785 C-62.21 -1.046 -57.692 -3.6 -51.379 -5.441 C-36.186 -9.009 -12.628 -10.394 0 0 Z " fill="#E5864F" transform="translate(263,180)"/>
<path d="M0 0 C8.471 1.712 16.973 2.721 25.562 3.625 C22.464 5.691 19.674 6.766 16.188 8.062 C-16.046 20.601 -42.797 42.031 -63.438 69.625 C-63.864 70.186 -64.291 70.746 -64.73 71.324 C-79.305 90.523 -90.167 112.663 -97.7 135.505 C-98.001 136.39 -98.303 137.275 -98.613 138.188 C-98.87 138.973 -99.127 139.758 -99.392 140.566 C-101.45 144.618 -104.971 146.014 -109.098 147.449 C-109.974 147.755 -110.849 148.062 -111.752 148.377 C-112.659 148.686 -113.566 148.994 -114.5 149.312 C-115.411 149.633 -116.321 149.953 -117.26 150.283 C-124.035 152.625 -124.035 152.625 -127.438 152.625 C-128.318 129.248 -113.111 104.051 -101.438 84.625 C-100.978 83.855 -100.518 83.085 -100.044 82.292 C-92.925 70.461 -85.075 59.391 -76.438 48.625 C-75.996 48.067 -75.555 47.509 -75.101 46.934 C-57.813 25.141 -30.799 -6.474 0 0 Z " fill="#E4864F" transform="translate(144.4375,157.375)"/>
<path d="M0 0 C11.507 1.364 20.649 5.027 28.637 13.797 C31.43 17.414 33 20.424 33 25 C31.02 37.235 20.767 48.829 13 58 C12.547 58.542 12.094 59.083 11.628 59.641 C6.003 66.367 0.303 72.878 -5.992 78.992 C-7.92 80.92 -9.681 82.916 -11.438 85 C-14.748 88.848 -18.395 92.17 -22.207 95.516 C-24.202 97.29 -26.147 99.077 -28.074 100.922 C-46.675 118.662 -46.675 118.662 -55 120 C-54.353 115.144 -52.353 111.172 -50.238 106.816 C-49.856 106.017 -49.474 105.218 -49.08 104.395 C-48.257 102.677 -47.433 100.96 -46.605 99.244 C-44.858 95.619 -43.122 91.988 -41.386 88.357 C-40.508 86.52 -39.629 84.683 -38.749 82.847 C-35.014 75.045 -31.336 67.218 -27.688 59.375 C-27.135 58.189 -26.583 57.003 -26.015 55.781 C-24.909 53.406 -23.805 51.03 -22.7 48.655 C-19.962 42.765 -17.212 36.881 -14.465 30.995 C-13.061 27.988 -11.657 24.98 -10.254 21.973 C-5.127 10.986 -5.127 10.986 0 0 Z " fill="#E4864F" transform="translate(305,195)"/>
<path d="M0 0 C29.758 11.153 56.19 35.952 74.769 61.325 C75.994 62.992 77.246 64.635 78.504 66.277 C92.704 85.122 106.9 109.698 106 134 C103.733 135.174 101.462 136.339 99.188 137.5 C98.224 138.001 98.224 138.001 97.24 138.512 C94.305 140.002 92.339 141 89 141 C88.671 139.728 88.343 138.455 88.004 137.145 C79.983 107.087 66.432 82.528 45 60 C44.38 59.316 43.76 58.631 43.121 57.926 C29.008 42.866 9.972 31.794 -8 22 C-7.421 18.747 -6.649 15.838 -5.371 12.793 C-5.058 12.042 -4.746 11.291 -4.424 10.518 C-4.098 9.749 -3.773 8.98 -3.438 8.188 C-3.108 7.399 -2.779 6.611 -2.439 5.799 C-1.63 3.864 -0.816 1.932 0 0 Z " fill="#E4864F" transform="translate(330,154)"/>
<path d="M0 0 C9.558 5.503 17.403 14.029 25.103 21.816 C26.806 23.537 28.517 25.25 30.229 26.962 C35.879 32.63 41.375 38.357 46.549 44.468 C48.026 46.137 49.505 47.804 50.987 49.468 C51.666 50.231 52.345 50.994 53.045 51.78 C53.79 52.616 53.79 52.616 54.549 53.468 C51.478 54.435 49.444 54.45 46.319 53.726 C45.515 53.546 44.711 53.367 43.883 53.183 C42.635 52.891 42.635 52.891 41.362 52.593 C16.802 46.945 -12.126 46.932 -36.294 54.663 C-39.52 55.486 -41.301 55.422 -44.451 54.468 C-44.561 52.365 -44.637 50.26 -44.701 48.155 C-44.747 46.984 -44.793 45.812 -44.841 44.604 C-44.361 34.225 -38.352 25.537 -32.701 17.218 C-32.023 16.181 -31.345 15.145 -30.646 14.077 C-22.955 2.614 -14.469 -7.198 0 0 Z " fill="#E5864F" transform="translate(118.45068359375,236.5322265625)"/>
<path d="M0 0 C3 1 3 1 4.211 3.012 C5.509 5.995 6.771 8.988 8 12 C8.473 13.094 8.946 14.189 9.434 15.316 C15.34 30.023 13.927 46.085 9 61 C7.083 64.556 4.824 67.146 2 70 C0.939 71.424 -0.103 72.861 -1.125 74.312 C-3.439 77.398 -5.683 79.938 -9 82 C-12 81 -12 81 -13.027 79.32 C-13.328 78.596 -13.628 77.871 -13.938 77.125 C-14.275 76.317 -14.613 75.509 -14.961 74.676 C-16.038 71.902 -17.059 69.113 -18.062 66.312 C-20.573 59.362 -23.328 54.339 -28.379 48.93 C-30.542 46.355 -32.064 44.431 -31.91 40.98 C-30.642 38.221 -28.883 37.093 -26.438 35.312 C-17.695 28.535 -12.098 20.966 -6.832 11.332 C-4.698 7.451 -2.387 3.729 0 0 Z " fill="#D1DE4E" transform="translate(222,30)"/>
<path d="M0 0 C1.813 0.114 3.624 0.277 5.43 0.48 C6.363 0.585 7.296 0.69 8.257 0.798 C11.285 1.195 14.292 1.667 17.305 2.168 C18.932 2.435 18.932 2.435 20.592 2.707 C34.165 5.013 47.842 7.746 60.43 13.48 C58.972 16.564 57.513 19.647 56.055 22.73 C55.642 23.603 55.23 24.476 54.805 25.375 C54.205 26.642 54.205 26.642 53.594 27.934 C53.227 28.709 52.861 29.484 52.483 30.282 C51.487 32.36 50.467 34.423 49.43 36.48 C43.821 35.799 38.791 33.965 33.492 32.105 C12.929 25.107 -6.15 23.674 -27.57 26.48 C-29.091 26.672 -30.612 26.862 -32.133 27.051 C-33.267 27.193 -34.402 27.334 -35.57 27.48 C-32.669 25.047 -29.708 22.925 -26.508 20.918 C-22.457 18.252 -18.889 15.245 -15.32 11.98 C-14.825 11.53 -14.33 11.079 -13.82 10.615 C-10.901 7.915 -10.901 7.915 -8.451 4.801 C-6.001 1.145 -4.253 0.077 0 0 Z " fill="#E3864F" transform="translate(244.5703125,124.51953125)"/>
<path d="M0 0 C3 1 3 1 3.856 2.635 C4.083 3.337 4.309 4.039 4.543 4.762 C4.94 5.936 4.94 5.936 5.345 7.133 C5.623 7.976 5.901 8.819 6.188 9.688 C10.713 22.628 16.853 33.663 26 44 C26.552 44.634 27.103 45.268 27.672 45.922 C40.121 59.32 61.244 68.364 79.508 69.309 C85.252 69.447 90.725 69.426 96.312 67.914 C100 67 100 67 103 68 C105.312 68.076 107.625 68.137 109.938 68.188 C116.442 68.59 116.442 68.59 118.809 70.328 C120.247 72.499 121 74.382 121 77 C97.621 86.601 73.607 86.467 49.938 77.188 C28.826 67.999 15.372 52.111 6.281 31.277 C2.203 20.846 0.339 11.151 0 0 Z " fill="#416353" transform="translate(78,63)"/>
<path d="M0 0 C4.957 4.404 7.518 8.823 8.285 15.469 C8.68 22.684 7.231 28.108 3 34 C-2.227 39.712 -8.38 41.652 -16 42 C-22.962 41.641 -28.014 38.771 -33 34 C-38.586 27.301 -38.688 20.41 -38 12 C-36.275 5.286 -31.531 0.9 -26 -3 C-17.121 -7.439 -7.895 -5.418 0 0 Z " fill="#E3864F" transform="translate(413,123)"/>
<path d="M0 0 C4.383 2.191 7.167 4.417 9 9 C9.732 13.881 9.478 17.107 7.125 21.5 C5 24 5 24 3 25 C3.58 25.026 4.16 25.052 4.758 25.078 C11.542 25.571 15.259 27.482 20.312 32.125 C22.776 36.322 23.309 40.162 23 45 C21.444 50.356 18.726 53.971 14 57 C8.833 58.722 3.894 58.656 -1.25 56.875 C-5.053 54.282 -7.993 51.402 -9.812 47.062 C-10.353 41.117 -10.249 37.154 -7 32 C-4.312 29.125 -4.312 29.125 -2 27 C-3.196 26.938 -4.392 26.876 -5.625 26.812 C-10.487 26.2 -12.633 24.527 -16 21 C-18.47 17.133 -18.165 13.552 -17.543 9.152 C-16.749 6.003 -15.342 4.209 -13 2 C-8.744 -0.525 -4.839 -0.681 0 0 Z " fill="#159B52" transform="translate(410,52)"/>
<path d="M0 0 C4.62 2.31 9.24 4.62 14 7 C13.01 7.33 12.02 7.66 11 8 C14.934 24.934 25.579 37.566 40.115 46.721 C58.374 57.549 79.834 65.165 101 67 C92.149 73.855 82.759 73.963 72 73 C55.801 70.924 38.846 63.191 27 52 C26.334 51.422 25.667 50.845 24.98 50.25 C12.525 38.851 1.724 19.721 -1 3 C-0.67 2.01 -0.34 1.02 0 0 Z " fill="#A4CF60" transform="translate(81,60)"/>
<path d="M0 0 C0.99 0 1.98 0 3 0 C11.968 20.702 19.105 39.43 12 62 C8.349 71.125 3.638 79.71 -3 87 C-3.673 87.741 -4.346 88.482 -5.039 89.246 C-8.53 92.914 -11.143 95.328 -16 97 C-17.21 91.319 -17.417 87.097 -14.504 81.961 C-12.181 78.933 -9.34 76.656 -6.316 74.348 C0.474 67.466 2.239 59.15 3.812 49.875 C4.02 48.674 4.228 47.473 4.443 46.235 C6.812 31.896 6.764 21.15 1.312 7.582 C0 4 0 4 0 0 Z " fill="#416353" transform="translate(228,35)"/>
<path d="M0 0 C4.957 4.404 7.518 8.823 8.285 15.469 C8.68 22.684 7.231 28.108 3 34 C-2.227 39.712 -8.38 41.652 -16 42 C-22.962 41.641 -28.014 38.771 -33 34 C-38.586 27.301 -38.688 20.41 -38 12 C-36.275 5.286 -31.531 0.9 -26 -3 C-17.121 -7.439 -7.895 -5.418 0 0 Z M-28.543 6.695 C-32.31 11.907 -32.944 16.702 -32 23 C-30.242 28.378 -26.662 31.922 -22 35 C-17.184 36.562 -12.653 36.595 -7.875 34.875 C-2.558 31.407 0.634 27.207 2 21 C2.839 14.605 1.597 11.114 -2.234 5.922 C-5.969 1.857 -10.182 0.869 -15.5 0.562 C-21.083 0.8 -24.788 2.57 -28.543 6.695 Z " fill="#149D52" transform="translate(413,123)"/>
<path d="M0 0 C3.884 1.977 6.991 4.087 9 8 C10.523 14.068 10.245 18.483 7 24 C2.148 28.497 -0.993 29.35 -7.457 29.285 C-12.102 28.764 -14.821 26.341 -17.812 22.938 C-20.242 18.973 -20.309 15.557 -20 11 C-18.365 6.83 -16.427 3.892 -13 1 C-8.652 -0.449 -4.544 -0.517 0 0 Z " fill="#DF874F" transform="translate(390,90)"/>
<path d="M0 0 C3.576 1.914 5.698 4.093 7 8 C7.393 12.796 7.483 15.069 5.25 19.375 C2.022 23.141 0.492 23.864 -4.438 24.312 C-9.052 23.908 -11.538 22.64 -14.609 19.195 C-17.037 15.363 -16.757 11.373 -16 7 C-12.347 0.249 -7.208 -1.1 0 0 Z " fill="#E2864F" transform="translate(421,82)"/>
<path d="M0 0 C3.798 3.798 3.309 8.298 3.315 13.395 C3.057 26.388 1.405 39.492 -8 49 C-9.061 50.424 -10.103 51.861 -11.125 53.312 C-13.439 56.398 -15.683 58.938 -19 61 C-19.99 60.67 -20.98 60.34 -22 60 C-23.188 56.438 -23.188 56.438 -24 53 C-23.256 52.634 -22.512 52.268 -21.746 51.891 C-7.451 42.049 -3.395 15.771 0 0 Z " fill="#A3CE60" transform="translate(232,51)"/>
<path d="M0 0 C3.884 1.977 6.991 4.087 9 8 C10.523 14.068 10.245 18.483 7 24 C2.148 28.497 -0.993 29.35 -7.457 29.285 C-12.102 28.764 -14.821 26.341 -17.812 22.938 C-20.242 18.973 -20.309 15.557 -20 11 C-18.365 6.83 -16.427 3.892 -13 1 C-8.652 -0.449 -4.544 -0.517 0 0 Z M-14 7 C-16.35 10.757 -16.218 13.527 -15.59 17.805 C-14.603 21.478 -13.167 22.954 -10 25 C-5.438 25.926 -2.11 25.638 1.938 23.312 C5.187 19.669 6.025 17.403 5.938 12.5 C4.783 8.19 3.61 6.612 0 4 C-5.751 1.976 -9.366 2.918 -14 7 Z " fill="#169D52" transform="translate(390,90)"/>
<path d="M0 0 C3.025 2.06 4.669 3.516 5.48 7.156 C5.739 11.353 5.333 13.49 3 17.062 C-0.855 19.552 -3.537 19.938 -8 19 C-10.938 17.562 -10.938 17.562 -13 15 C-14.046 11.921 -14.397 9.233 -14 6 C-10.609 -0.409 -6.825 -1.62 0 0 Z " fill="#E0864E" transform="translate(410,56)"/>
</svg>