
<!-- Generator: visioncortex VTracer 0.6.4 -->
<svg version="1.1" xmlns="http://www.w3.org/2000/svg" viewBox="0 0 592 592" preserveAspectRatio="xMidYMid meet">
<path d="M0 0 C0.788 0.677 1.575 1.354 2.387 2.051 C14.87 12.966 26.945 24.797 37 38 C37.793 38.999 38.586 39.998 39.402 41.027 C87.104 101.36 109.479 180.349 100.684 256.773 C100.462 258.516 100.234 260.259 100 262 C99.876 262.93 99.753 263.859 99.625 264.817 C95.255 296.378 85.809 326.339 72 355 C71.632 355.768 71.264 356.537 70.885 357.329 C61.365 376.956 48.964 395.264 35 412 C34.558 412.542 34.117 413.083 33.662 413.642 C21.899 428.069 8.778 441.652 -6 453 C-7.05 453.849 -8.098 454.701 -9.145 455.555 C-58.311 495.43 -120.743 518.261 -184 520 C-184.742 520.022 -185.484 520.044 -186.248 520.066 C-261.485 521.958 -335.939 495.037 -391.551 444.227 C-393.135 442.786 -394.736 441.363 -396.355 439.961 C-408.649 429.252 -419.22 417.001 -429 404 C-429.449 403.413 -429.899 402.826 -430.362 402.221 C-467.523 353.657 -488.607 293.118 -490 232 C-490.06 230.188 -490.06 230.188 -490.121 228.34 C-491.576 146.952 -458.632 72.218 -403 14 C-402.171 13.129 -401.342 12.257 -400.488 11.359 C-395.885 6.632 -391.004 2.411 -385.848 -1.703 C-383.993 -3.199 -382.165 -4.729 -380.371 -6.297 C-303.868 -72.897 -190.218 -87.651 0 0 Z " fill="#F6E6CD" transform="translate(490,72)"/>
<path d="M0 0 C10.616 5.636 17.446 19.504 20.887 30.629 C23.454 39.933 24.585 48.949 21.465 58.309 C22.082 58.358 22.7 58.407 23.336 58.457 C24.183 58.532 25.03 58.607 25.902 58.684 C26.726 58.753 27.55 58.823 28.398 58.895 C32.482 59.446 36.456 60.369 40.465 61.309 C41.759 58.601 43.05 55.893 44.34 53.184 C44.741 52.342 45.142 51.501 45.556 50.634 C47.79 45.924 49.972 41.198 52.078 36.43 C52.723 34.977 52.723 34.977 53.381 33.495 C54.209 31.624 55.028 29.75 55.837 27.873 C60.05 18.378 65.7 10.225 74.84 4.934 C84.467 2.641 92.541 5.983 101.465 9.309 C102.259 9.598 103.052 9.886 103.87 10.184 C106.345 11.087 108.812 12.007 111.277 12.934 C112.452 13.367 112.452 13.367 113.65 13.809 C119.232 15.96 119.232 15.96 121.465 19.309 C122.4 26.658 120.176 32.952 116.465 39.309 C114.397 41.086 113.128 41.565 110.465 42.309 C110.886 42.77 111.308 43.232 111.742 43.707 C115.555 48.247 117.436 51.872 117.703 57.844 C117.204 63.005 115.058 66.893 111.215 70.309 C110.637 70.639 110.06 70.969 109.465 71.309 C109.621 71.854 109.777 72.399 109.938 72.961 C111.746 79.968 112.282 86 108.715 92.496 C106.337 95.468 103.905 98.387 101.465 101.309 C102.143 102.122 102.821 102.935 103.52 103.773 C117.991 121.456 130.975 142.846 132.059 166.273 C130.315 172.25 123.575 175.256 118.518 178.074 C89.444 194.009 48.055 211.08 14.465 201.309 C14.135 202.959 13.805 204.609 13.465 206.309 C14.739 205.825 14.739 205.825 16.039 205.332 C24.171 202.903 33.08 203.179 40.633 207.172 C45.136 209.966 48.071 212.521 50.465 217.309 C50.465 217.969 50.465 218.629 50.465 219.309 C53.122 216.758 55.49 214.075 57.84 211.246 C61.302 207.308 64.2 204.79 69.559 204 C73.936 203.753 76.746 204.253 80.527 206.496 C82.864 207.827 83.889 208.409 86.566 207.941 C88.584 207.148 90.516 206.256 92.465 205.309 C99.025 203.505 105.373 203.651 111.641 206.262 C116.29 208.93 118.861 213.283 120.465 218.309 C120.477 221.098 120.477 221.098 120.152 223.934 C120.003 225.345 120.003 225.345 119.852 226.785 C119.465 229.309 119.465 229.309 118.465 232.309 C119.125 231.979 119.785 231.649 120.465 231.309 C124.337 230.878 125.99 230.992 129.277 233.184 C132.09 235.916 132.663 237.493 132.84 241.309 C132.638 252.819 123.59 262.12 115.941 269.863 C108.546 276.803 101.093 281.777 90.613 281.582 C84.394 280.79 79.624 277.261 75.785 272.457 C73.277 268.375 71.866 263.867 70.465 259.309 C68.984 263.06 68.334 266.38 68.09 270.371 C67.788 273.656 67.432 275.372 65.902 278.371 C62.584 281.008 59.582 281.443 55.465 281.309 C49.958 280.628 45.843 278.791 41.465 275.309 C40.825 274.401 40.186 273.494 39.527 272.559 C37.604 270.042 37.604 270.042 34.402 269.559 C29.644 269.874 26.133 272.959 22.301 275.547 C17.021 278.827 11.474 280.709 5.215 280.246 C-0.782 278.747 -4.836 275.178 -9.535 271.309 C-10.525 272.299 -11.515 273.289 -12.535 274.309 C-12.185 275.092 -11.834 275.876 -11.473 276.684 C-11.009 277.983 -11.009 277.983 -10.535 279.309 C-10.865 279.969 -11.195 280.629 -11.535 281.309 C-10.772 281.7 -10.009 282.092 -9.223 282.496 C-6.167 284.557 -5.121 286.006 -3.535 289.309 C-3.147 295.578 -3.879 302.086 -7.535 307.309 C-11.633 311.007 -13.89 312.434 -19.348 312.246 C-23.323 312.195 -25.876 312.726 -29.535 314.309 C-35.231 314.89 -40.139 313.506 -45.57 311.965 C-48.651 311.283 -51.391 311.273 -54.535 311.309 C-56.91 310.309 -56.91 310.309 -58.535 309.309 C-58.865 310.629 -59.195 311.949 -59.535 313.309 C-61.66 314.059 -61.66 314.059 -64.535 314.309 C-68.951 312.012 -71.466 309.818 -73.535 305.309 C-73.884 302.359 -73.82 299.461 -73.723 296.496 C-73.709 295.708 -73.696 294.92 -73.682 294.107 C-73.646 292.174 -73.593 290.241 -73.535 288.309 C-76.772 295.579 -79.908 302.656 -81.797 310.418 C-82.535 312.309 -82.535 312.309 -85.535 314.309 C-87.91 313.996 -87.91 313.996 -90.535 313.309 C-95.963 311.968 -101.288 312.281 -106.844 312.371 C-110.94 312.302 -114.7 311.697 -118.695 310.852 C-120.921 310.391 -120.921 310.391 -124.535 310.309 C-126.227 311.61 -127.892 312.946 -129.535 314.309 C-137.182 316.472 -144.853 315.021 -151.723 311.246 C-156.269 308.221 -158.852 303.974 -161.535 299.309 C-162.355 299.658 -163.175 300.007 -164.02 300.367 C-165.097 300.822 -166.175 301.277 -167.285 301.746 C-168.352 302.199 -169.42 302.651 -170.52 303.117 C-179.659 306.728 -188.994 306.302 -198.059 302.566 C-204.855 299.115 -208.959 294.497 -211.535 287.309 C-217.152 263.438 -202.24 239.358 -191.16 219.309 C-188.296 214.043 -186.005 208.748 -183.973 203.121 C-183.709 202.401 -183.444 201.681 -183.172 200.939 C-181.43 196.105 -181.43 196.105 -182.535 191.309 C-184.161 189.602 -185.826 187.932 -187.535 186.309 C-189.262 182.854 -188.889 179.093 -188.535 175.309 C-187.229 171.971 -185.994 170.659 -183.16 168.496 C-175.218 165.894 -167.75 166.309 -160.16 169.809 C-151.641 174.63 -147.149 180.415 -144.191 189.723 C-141.339 200.961 -146.854 212.924 -151.41 223.059 C-151.882 224.124 -152.354 225.19 -152.84 226.287 C-156.847 235.163 -161.368 243.716 -166.207 252.165 C-169.54 258.07 -171.904 263.72 -173.535 270.309 C-156.927 254.259 -144.425 236.567 -133.535 216.309 C-129.137 208.153 -124.658 200.183 -119.285 192.621 C-118.885 192.057 -118.485 191.493 -118.072 190.911 C-115.485 187.365 -112.697 184.33 -109.535 181.309 C-110.176 181.537 -110.816 181.765 -111.477 182 C-116.813 183.774 -120.967 185.013 -126.535 183.309 C-129.019 180.894 -129.511 179.548 -129.863 176.066 C-129.837 174.868 -129.812 173.669 -129.785 172.434 C-129.77 171.24 -129.754 170.046 -129.738 168.816 C-129.551 165.575 -129.139 162.495 -128.535 159.309 C-131.883 157.077 -133.006 157.062 -136.91 157.121 C-138.314 157.131 -138.314 157.131 -139.746 157.141 C-142.519 157.217 -142.519 157.217 -145.059 157.969 C-148.338 158.419 -149.904 157.495 -152.785 155.934 C-153.657 155.472 -154.528 155.011 -155.426 154.535 C-157.535 153.309 -157.535 153.309 -158.535 152.309 C-159.051 153.278 -159.566 154.247 -160.098 155.246 C-162.535 158.309 -162.535 158.309 -165.91 159.309 C-169.612 159.309 -172.09 158.561 -175.535 157.309 C-176.525 157.639 -177.515 157.969 -178.535 158.309 C-181.797 158.377 -185.046 158.306 -188.309 158.246 C-191.467 158.195 -191.467 158.195 -194.199 158.934 C-197.072 159.395 -198.031 158.665 -200.535 157.309 C-202.763 157.105 -202.763 157.105 -205.035 157.246 C-208.095 157.367 -210.589 157.172 -213.535 156.309 C-213.665 157.287 -213.665 157.287 -213.797 158.285 C-214.78 164.401 -215.839 168.146 -220.535 172.309 C-224.094 173.569 -225.716 173.632 -229.223 172.246 C-233.274 168.852 -234.562 165.044 -235.223 159.934 C-235.326 158.737 -235.429 157.541 -235.535 156.309 C-236.525 156.969 -237.515 157.629 -238.535 158.309 C-242.79 160.729 -245.681 160.857 -250.535 160.309 C-252.225 159.348 -253.897 158.355 -255.535 157.309 C-256.878 157.599 -258.211 157.941 -259.535 158.309 C-264.841 158.798 -269.177 158.963 -274.035 156.621 C-276.505 154.336 -278.036 152.307 -279.535 149.309 C-279.803 150.402 -280.071 151.495 -280.348 152.621 C-282.007 157.774 -282.007 157.774 -284.535 159.309 C-288.492 159.73 -291.138 159.399 -294.535 157.309 C-295.525 160.279 -295.525 160.279 -296.535 163.309 C-295.875 162.979 -295.215 162.649 -294.535 162.309 C-276.582 161.056 -276.582 161.056 -270.535 166.309 C-265.264 172.165 -264.179 177.253 -264.254 185.047 C-264.99 193.588 -269.179 201.077 -273.535 208.309 C-272.785 208.274 -272.035 208.239 -271.262 208.203 C-265.856 208.06 -261.342 208.15 -256.223 209.996 C-252.474 211.285 -251.9 211.443 -247.973 209.996 C-246.838 209.439 -245.704 208.882 -244.535 208.309 C-239.88 207.559 -235.876 207.808 -231.66 209.996 C-226.908 213.513 -226.908 213.513 -225.535 217.309 C-224.567 224.9 -225.855 230.655 -229.535 237.309 C-228.943 237.262 -228.352 237.216 -227.742 237.168 C-223.515 236.975 -221.21 236.887 -217.535 239.184 C-214.132 242.799 -214.067 245.695 -214.137 250.523 C-215.502 260.066 -223.93 268.105 -231.311 273.64 C-233.262 275.04 -235.232 276.402 -237.223 277.746 C-237.852 278.171 -238.482 278.597 -239.131 279.035 C-245.523 283.198 -250.926 284.792 -258.535 284.309 C-260.219 283.686 -261.89 283.027 -263.535 282.309 C-263.489 283.059 -263.442 283.809 -263.395 284.582 C-263.093 293.13 -264.234 299.943 -269.473 306.871 C-273.084 309.388 -276.302 309.46 -280.539 308.785 C-282.06 308.508 -283.579 308.224 -285.098 307.934 C-307.553 303.953 -330.797 303.728 -352.922 309.695 C-358.476 310.999 -362.73 311.178 -367.91 308.684 C-372.073 304.918 -373.354 301.935 -373.973 296.371 C-373.779 291.761 -372.198 289.051 -369.535 285.309 C-368.682 284.725 -367.828 284.141 -366.949 283.539 C-363.705 280.542 -363.854 278.728 -363.598 274.371 C-362.056 256.691 -355.668 238.022 -347.535 222.309 C-348.092 222.123 -348.649 221.937 -349.223 221.746 C-353.418 219.138 -355.992 214.937 -357.535 210.309 C-358.306 203.902 -357.518 198.513 -353.535 193.309 C-350.215 190.325 -346.917 189.087 -342.473 188.934 C-338.829 189.281 -335.92 189.955 -332.535 191.309 C-332.292 190.585 -332.048 189.862 -331.797 189.117 C-328.227 181.171 -319.553 172.658 -311.598 168.934 C-310.917 168.727 -310.236 168.521 -309.535 168.309 C-309.535 167.649 -309.535 166.989 -309.535 166.309 C-310.432 165.968 -310.432 165.968 -311.348 165.621 C-313.535 164.309 -313.535 164.309 -314.723 161.746 C-316.268 159.13 -316.268 159.13 -318.723 158.762 C-321 158.52 -323.246 158.361 -325.535 158.309 C-325.783 159.072 -326.03 159.835 -326.285 160.621 C-328.057 164.431 -330.021 165.751 -333.91 167.184 C-337.695 167.364 -339.363 166.402 -342.535 164.309 C-345.022 161.761 -347.307 159.084 -349.535 156.309 C-349.927 156.783 -350.319 157.257 -350.723 157.746 C-353.042 159.746 -354.484 160.144 -357.535 160.309 C-359.922 159.199 -359.922 159.199 -362.223 157.559 C-362.99 157.028 -363.757 156.496 -364.547 155.949 C-367.477 153.532 -368.465 151.83 -368.973 148.059 C-368.906 142.956 -366.978 138.285 -365.138 133.589 C-363.717 129.932 -363.717 129.932 -364.219 126.16 C-364.653 125.549 -365.088 124.938 -365.535 124.309 C-370.436 115.548 -370.436 115.548 -370.785 111.184 C-367.426 103.456 -361.98 99.394 -354.309 96.273 C-345.703 93.279 -337.525 91.935 -328.75 95.145 C-323.89 97.699 -320.458 101.647 -318.66 106.832 C-318.169 108.993 -317.785 111.108 -317.535 113.309 C-316.339 113.267 -315.143 113.226 -313.91 113.184 C-310.112 113.17 -307.085 113.888 -303.535 115.309 C-303.377 114.74 -303.218 114.172 -303.055 113.586 C-301.165 107.333 -298.892 102.086 -293.723 97.809 C-288.881 96.702 -284.873 97.506 -280.723 99.996 C-278.171 102.694 -276.774 104.798 -275.535 108.309 C-275.848 112.184 -275.848 112.184 -276.535 115.309 C-275.669 115.123 -274.803 114.937 -273.91 114.746 C-270.535 114.309 -270.535 114.309 -267.41 114.871 C-264.616 115.586 -264.616 115.586 -262.656 114.328 C-260.097 113.098 -258.533 113.23 -255.723 113.434 C-252.098 113.529 -249.996 113.329 -246.973 111.309 C-242.67 108.805 -239.41 108.501 -234.535 109.309 C-231.723 110.871 -231.723 110.871 -229.535 112.309 C-227.638 112.023 -227.638 112.023 -225.535 111.309 C-217.935 110.922 -211.276 112.143 -204.223 114.996 C-200.55 116.303 -199.951 116.471 -196.535 115.309 C-195.875 114.979 -195.215 114.649 -194.535 114.309 C-191.495 114.173 -188.877 114.227 -185.91 114.934 C-183.555 115.546 -183.555 115.546 -181.723 114.371 C-177.269 112.208 -172.183 113.057 -167.535 114.309 C-166.875 113.979 -166.215 113.649 -165.535 113.309 C-161.385 113.12 -157.616 113.614 -153.535 114.309 C-151.869 114.345 -150.201 114.358 -148.535 114.309 C-148.473 113.752 -148.411 113.195 -148.348 112.621 C-147.141 109.186 -145.356 107.578 -142.535 105.309 C-138.148 103.952 -136.32 103.931 -132.16 105.934 C-129.338 108.487 -128.742 109.581 -128.535 113.309 C-127.894 113.334 -127.254 113.36 -126.594 113.387 C-120.476 113.788 -116.623 114.88 -111.535 118.309 C-110.99 117.486 -110.445 116.664 -109.883 115.816 C-102.189 104.366 -93.101 92.106 -81.535 84.309 C-80.875 84.309 -80.215 84.309 -79.535 84.309 C-79.971 83.738 -80.407 83.166 -80.855 82.578 C-92.809 66.304 -99.607 44.443 -98.473 24.059 C-97.535 20.309 -97.535 20.309 -95.473 17.684 C-91.55 15.848 -88.557 15.998 -84.535 17.309 C-82.474 18.441 -80.584 19.665 -78.688 21.055 C-72.163 24.856 -64.82 24.79 -57.473 25.246 C-48.243 25.89 -39.494 26.905 -30.535 29.309 C-24.47 22.541 -19.791 15.705 -15.543 7.705 C-11.541 0.21 -8.463 -3.086 0 0 Z " fill="#FBFCFA" transform="translate(416.53515625,123.69140625)"/>
<path d="M0 0 C5.822 1.236 8.529 5.366 12 10 C18.013 19.622 21.395 28.049 21.312 39.375 C21.311 40.48 21.311 40.48 21.309 41.607 C21.206 47.424 20.231 52.595 18 58 C19.172 58.11 20.344 58.219 21.551 58.332 C29.493 59.119 37.109 59.932 44.738 62.414 C47.236 63.061 49.43 63.1 52 63 C52.496 61.875 52.993 60.749 53.504 59.59 C57.602 50.318 61.724 41.059 66.089 31.909 C66.724 30.578 67.356 29.245 67.985 27.911 C77.564 7.67 77.564 7.67 85 5 C92.397 4.153 97.996 6.602 104.75 9.438 C106.786 10.271 108.822 11.104 110.859 11.934 C111.751 12.305 112.643 12.677 113.562 13.06 C116.219 14.141 116.219 14.141 120 15 C119.01 18.63 118.02 22.26 117 26 C112.797 24.623 108.625 23.24 104.496 21.652 C103.281 21.19 102.065 20.727 100.812 20.25 C99.09 19.577 99.09 19.577 97.332 18.891 C93.716 17.924 91.585 18.027 88 19 C84.876 21.205 83.601 23.696 82.121 27.117 C81.771 27.919 81.422 28.721 81.062 29.548 C80.711 30.357 80.361 31.166 80 32 C79.37 33.43 78.738 34.86 78.105 36.289 C77.789 37.004 77.473 37.72 77.146 38.457 C76.83 39.172 76.514 39.888 76.188 40.625 C75.73 41.663 75.73 41.663 75.264 42.723 C69.864 54.914 64.1 66.933 58.263 78.92 C56.507 82.525 54.755 86.131 53.004 89.738 C52.485 90.808 52.485 90.808 51.955 91.899 C49.003 97.981 46.091 104.082 43.188 110.188 C39.274 118.41 35.237 126.565 31.141 134.698 C26.742 143.459 22.519 152.301 18.312 161.156 C16.583 164.793 14.82 168.408 13 172 C17.532 172.497 19.47 172.377 23.246 169.691 C24.328 168.667 25.391 167.623 26.438 166.562 C27.002 166.017 27.566 165.471 28.147 164.909 C31.944 161.196 35.546 157.33 38.926 153.23 C40.766 151.252 42.637 149.547 44.684 147.789 C50.095 143.123 55.019 137.997 59.996 132.877 C60.714 132.148 61.432 131.419 62.172 130.668 C62.812 130.011 63.453 129.354 64.112 128.677 C66.832 126.261 69.219 125.177 72.75 124.375 C78.124 125.408 80.756 128.749 84 133 C85.611 135.485 87.079 138.028 88.5 140.625 C88.85 141.258 89.201 141.891 89.562 142.543 C91.616 146.507 92.573 149.546 92 154 C86.671 160.782 79.453 163.481 71.375 165.438 C70.562 165.643 69.75 165.848 68.913 166.06 C66.278 166.72 63.64 167.363 61 168 C60.076 168.224 59.151 168.447 58.199 168.678 C53.705 169.761 49.208 170.831 44.707 171.887 C40.461 172.884 36.229 173.932 32 175 C32 175.66 32 176.32 32 177 C56.734 176.272 77.435 170.434 99.997 160.49 C100.742 160.164 101.487 159.839 102.254 159.504 C102.907 159.213 103.56 158.923 104.233 158.623 C106 158 106 158 109 158 C104.173 142.595 99.302 127.793 87.262 116.348 C86 115 86 115 86 113 C85.411 112.734 84.822 112.469 84.215 112.195 C81.942 110.969 80.422 109.656 78.562 107.875 C72.242 102.197 64.655 97.66 57 94 C57.639 89.533 59.33 85.757 61.312 81.75 C61.756 80.795 61.756 80.795 62.209 79.82 C64.437 75.297 64.437 75.297 66.957 73.969 C77.579 74.131 89.695 86.725 97.062 93.625 C112.752 110.091 127.445 131.955 130.379 154.973 C130 158 130 158 127.754 160.055 C126.174 160.956 126.174 160.956 124.562 161.875 C123.697 162.373 123.697 162.373 122.814 162.88 C111.067 169.486 98.805 174.822 86 179 C84.957 179.347 83.914 179.694 82.84 180.051 C70.2 184.107 57.322 187.579 44 188 C42.846 188.052 41.693 188.103 40.504 188.156 C33.049 188.349 26.94 187.71 20 185 C19.126 184.683 18.252 184.366 17.352 184.039 C10.999 181.585 5.156 178.48 -0.75 175.125 C-20.172 164.123 -38.53 157.825 -61.062 157.812 C-62.208 157.8 -63.353 157.788 -64.533 157.775 C-71.389 157.712 -71.389 157.712 -78.059 159.074 C-81 160 -81 160 -85 159 C-80.545 157.02 -80.545 157.02 -76 155 C-76.124 154.092 -76.248 153.185 -76.375 152.25 C-76.355 142.135 -67.837 131.837 -61 125 C-56.729 124.167 -54.318 125.192 -50.828 127.504 C-45.78 130.975 -41.571 135.055 -37.312 139.438 C-36.593 140.163 -35.873 140.888 -35.131 141.635 C-31.334 145.487 -27.721 149.398 -24.35 153.629 C-22.241 155.77 -19.876 156.384 -17 157 C-20.983 152.23 -25.191 147.731 -29.609 143.363 C-30.106 142.872 -30.603 142.38 -31.116 141.874 C-33.184 139.833 -35.255 137.797 -37.332 135.764 C-38.866 134.26 -40.394 132.75 -41.922 131.238 C-42.825 130.352 -43.728 129.465 -44.659 128.552 C-47.66 125.28 -49.705 122.508 -50.562 118.125 C-49.562 112.565 -46.082 109.451 -41.551 106.293 C-34.939 102.231 -28.944 98.773 -21 100 C-16.195 102.403 -14.769 106.057 -13.027 110.883 C-12.688 111.911 -12.349 112.94 -12 114 C-11.609 115.173 -11.219 116.346 -10.816 117.555 C-7.7 127.341 -5.612 137.274 -3.699 147.358 C-2.692 152.666 -1.601 157.838 0 163 C-1.65 162.67 -3.3 162.34 -5 162 C-2.36 163.32 0.28 164.64 3 166 C3.269 165.141 3.537 164.283 3.814 163.398 C4.999 160.002 6.406 156.867 7.977 153.633 C8.406 152.746 8.406 152.746 8.843 151.84 C9.767 149.933 10.696 148.029 11.625 146.125 C12.269 144.798 12.913 143.472 13.556 142.145 C16.686 135.702 19.837 129.271 23.062 122.875 C26.458 116.135 29.758 109.35 33.037 102.553 C33.633 101.318 34.23 100.082 34.828 98.847 C35.667 97.111 36.503 95.374 37.34 93.637 C37.828 92.623 38.317 91.61 38.82 90.565 C40.071 87.968 40.071 87.968 41 85 C40.215 84.807 39.43 84.613 38.621 84.414 C37.571 84.154 36.52 83.893 35.438 83.625 C34.405 83.37 33.372 83.115 32.309 82.852 C30.08 82.278 27.87 81.63 25.684 80.914 C21.237 79.811 17.184 79.706 12.625 79.75 C11.826 79.742 11.027 79.735 10.203 79.727 C3.071 79.75 -3.425 81.02 -10.125 83.438 C-14.067 84.831 -17.939 85.512 -22.062 86.188 C-43.073 90.234 -61.915 105.2 -74.062 122.45 C-80.835 132.536 -86.353 143.315 -90.438 154.75 C-92.063 158.761 -93.21 160.692 -97.188 162.5 C-98.784 163.024 -100.389 163.523 -102 164 C-103.796 164.738 -105.588 165.488 -107.375 166.25 C-110.247 167.435 -111.858 168 -115 168 C-117.096 143.257 -100.905 116.653 -85.816 98.352 C-79.016 90.472 -71.494 83.434 -62 79 C-62.574 75.281 -64.085 73.589 -66.688 70.938 C-73.66 63.316 -77.445 54.914 -80 45 C-80.371 43.804 -80.743 42.608 -81.125 41.375 C-83.146 33.578 -83.12 26.008 -83 18 C-78.998 19.574 -75.091 21.303 -71.184 23.098 C-67.029 24.815 -63.303 25.113 -58.806 25.24 C-49.531 25.516 -40.946 26.825 -31.953 29.062 C-31.287 29.219 -30.622 29.375 -29.936 29.536 C-28.065 29.984 -26.208 30.487 -24.352 30.992 C-20.802 31.348 -20.802 31.348 -18.008 28.633 C-17.019 27.487 -16.059 26.316 -15.125 25.125 C-14.616 24.507 -14.107 23.888 -13.583 23.251 C-7.946 16.13 -3.911 8.158 0 0 Z " fill="#19A259" transform="translate(410,131)"/>
<path d="M0 0 C3.101 1.967 3.785 3.16 4.688 6.688 C3.794 10.994 1.733 13.282 -1.047 16.621 C-2.97 18.963 -4.689 21.358 -6.375 23.875 C-6.857 24.594 -7.339 25.314 -7.836 26.055 C-10.21 30.022 -10.247 33.465 -10 38 C-8.141 40.236 -8.141 40.236 -5.312 40.5 C-0.601 39.789 1.816 37.454 5 34 C6.943 31 8.477 27.855 10 24.625 C14.694 14.767 19.99 7.082 29.965 2.074 C36.054 -0.081 42.434 -0.423 48.496 1.996 C52.58 4.402 56.151 7.145 57.547 11.84 C59.468 21 57.129 29.742 53 38 C58.109 36.394 61.505 33.698 64.133 28.956 C65.258 26.572 66.324 24.168 67.375 21.75 C74.517 5.989 74.517 5.989 82 1 C85.987 0.468 87.746 0.861 91.312 2.812 C94 5 94 5 95 8 C95.831 7.578 96.663 7.157 97.52 6.723 C98.606 6.175 99.693 5.627 100.812 5.062 C102.431 4.245 102.431 4.245 104.082 3.41 C109.177 0.948 113.414 0.432 119 1 C123.541 3.081 123.541 3.081 125 6 C126.205 15.166 122.442 22.265 118.312 30.188 C116.232 34.227 115.295 37.479 115 42 C123.562 39.622 128.832 34.168 135 28 C135.99 28 136.98 28 138 28 C138.619 36.615 132.922 42.844 127.688 49.25 C122.058 55.426 114.54 61.293 106.062 62.375 C102.078 61.887 100.085 60.536 97 58 C92.684 52.091 93.121 46.035 94 39 C95.772 32.405 98.685 26.18 102.141 20.309 C103.599 17.714 104.538 15.886 105 13 C90.883 20.091 81.778 30.95 75.707 45.559 C74.157 50.912 73.598 56.473 73 62 C63.865 60.675 63.865 60.675 60.438 58 C57.922 54.501 57.907 52.281 58 48 C57.216 48.309 56.433 48.619 55.625 48.938 C52.517 49.848 50.58 50.058 47.438 50.125 C41.24 50.596 36.809 53.834 31.785 57.188 C26.996 60.304 22.575 60.687 17 60 C12.236 57.411 10.738 54.031 9 49 C9 48.01 9 47.02 9 46 C8.238 46.603 7.476 47.207 6.691 47.828 C-8.861 59.866 -8.861 59.866 -19.773 59.309 C-22.976 58.865 -24.626 58.234 -27 56 C-28.545 53.416 -29.823 50.769 -31 48 C-31.389 48.436 -31.779 48.871 -32.18 49.32 C-38.119 55.642 -45.49 61.49 -54.375 62.312 C-58.716 61.938 -60.066 61.179 -63 58 C-67.1 50.79 -66.743 44.382 -64.812 36.562 C-62.26 27.983 -57.887 20.446 -53 13 C-65.049 15.459 -70.586 25.384 -77 35 C-77.543 35.786 -78.085 36.573 -78.645 37.383 C-82.256 43.123 -83.248 49.243 -84.324 55.84 C-85 59 -85 59 -87 61 C-90.312 61.438 -90.312 61.438 -94 61 C-97.931 57.855 -100.574 54.685 -101.371 49.66 C-101.798 32.97 -90.726 15.331 -79.594 3.469 C-77.197 1.26 -76.008 1.001 -72.688 0.625 C-68.07 1.095 -67.103 2.729 -64 6 C-60.847 5.626 -58.075 4.206 -55.188 2.938 C-50.156 0.926 -46.14 -0.177 -40.863 1.801 C-37.149 3.528 -35.328 4.507 -33 8 C-32.106 15.282 -34.507 19.731 -38 26 C-38.949 27.786 -39.887 29.577 -40.812 31.375 C-41.231 32.166 -41.65 32.958 -42.082 33.773 C-43.254 36.215 -43.254 36.215 -43 40 C-36.552 38.398 -36.552 38.398 -32.004 34.145 C-31.673 33.437 -31.341 32.729 -31 32 C-30.402 30.866 -29.804 29.731 -29.188 28.562 C-27.36 24.967 -26.027 21.302 -24.688 17.5 C-21.956 10.276 -18.465 5.41 -12.125 1 C-7.986 -0.324 -4.301 -0.726 0 0 Z " fill="#09A053" transform="translate(403,335)"/>
<path d="M0 0 C6.412 2.524 11.921 7.842 15 14 C17.203 33.24 6.356 49.85 -2.297 66.25 C-3.166 67.904 -3.166 67.904 -4.052 69.592 C-5.201 71.776 -6.357 73.956 -7.52 76.133 C-11.985 84.604 -15.471 91.82 -15.188 101.562 C-15.16 102.781 -15.133 103.999 -15.105 105.254 C-15.053 106.613 -15.053 106.613 -15 108 C-7.671 106.219 -3.311 103.248 2 98 C2.977 97.082 3.955 96.166 4.934 95.25 C20.502 80.45 31.195 63.29 41.348 44.507 C46.636 34.723 51.97 25.667 59 17 C59.509 16.316 60.018 15.631 60.543 14.926 C64.98 9.196 71.142 5.286 78 3 C84.541 2.77 84.541 2.77 87 4 C86.719 10.389 83.236 14.521 79.688 19.562 C69.328 34.738 60.567 50.506 52.5 67 C52.202 67.603 51.904 68.206 51.598 68.827 C45.851 80.509 42.154 92.402 39.25 105.062 C39.032 106.008 38.813 106.954 38.589 107.929 C37.26 113.988 36.537 119.631 37.02 125.855 C37 128 37 128 35 131 C30.066 131.822 25.295 131.424 20.562 129.875 C16.601 126.976 14.54 123.62 13 119 C12.931 116.939 12.915 114.875 12.938 112.812 C12.947 111.726 12.956 110.639 12.965 109.52 C12.976 108.688 12.988 107.857 13 107 C12.269 107.744 12.269 107.744 11.523 108.504 C3.843 115.863 -5.432 122.286 -16.375 122.688 C-23.177 122.226 -28.309 120.184 -32.875 115.062 C-37.055 109.038 -37.762 104.229 -37 97 C-34.124 82.822 -28.329 70.317 -21.554 57.615 C-13.515 42.492 -7.023 27.97 -4 11 C-4.777 10.861 -5.555 10.722 -6.355 10.578 C-9.365 9.92 -10.862 9.217 -13 7 C-13.438 4.438 -13.438 4.438 -13 2 C-8.712 -0.859 -5.031 -0.718 0 0 Z " fill="#09A053" transform="translate(249,299)"/>
<path d="M0 0 C2.101 1.72 3.525 3.519 4.738 5.945 C5.721 18.331 0.642 27.675 -7.262 36.945 C-16.361 46.739 -27.046 51.586 -40.262 52.945 C-40.553 53.94 -40.844 54.936 -41.145 55.961 C-41.559 57.372 -41.973 58.784 -42.387 60.195 C-42.608 60.952 -42.83 61.708 -43.058 62.487 C-44.292 66.688 -45.543 70.883 -46.824 75.07 C-50.245 86.272 -53.399 97.36 -55.262 108.945 C-54.283 108.74 -53.305 108.535 -52.297 108.324 C-50.973 108.052 -49.648 107.78 -48.324 107.508 C-47.036 107.241 -45.749 106.974 -44.422 106.699 C-30.574 104.055 -12.988 101.875 -0.262 108.945 C0.394 109.308 1.051 109.67 1.727 110.043 C3.426 111.195 3.426 111.195 5.738 113.945 C6.529 119.48 5.968 123.217 2.738 127.945 C-0.408 129.161 -2.951 128.884 -6.242 128.387 C-7.229 128.248 -8.216 128.109 -9.233 127.966 C-10.294 127.815 -11.356 127.663 -12.449 127.508 C-33.138 124.808 -53.982 124.611 -74.324 129.633 C-79.089 130.805 -82.533 131.343 -87.262 129.945 C-88.783 126.902 -88.838 125.339 -88.262 121.945 C-85.898 119.203 -83.303 116.911 -80.262 114.945 C-79.272 114.945 -78.282 114.945 -77.262 114.945 C-77.592 114.285 -77.922 113.625 -78.262 112.945 C-81.096 91.361 -69.448 67.862 -60.262 48.945 C-60.804 48.547 -61.347 48.149 -61.906 47.738 C-62.622 47.208 -63.337 46.679 -64.074 46.133 C-64.782 45.611 -65.49 45.089 -66.219 44.551 C-69.776 41.755 -71.623 40.195 -72.199 35.57 C-72.452 32.21 -72.28 30.985 -70.824 27.82 C-67.849 25.643 -66.081 25.608 -62.457 26.062 C-59.153 27.391 -56.921 29.589 -54.262 31.945 C-53.705 31.039 -53.148 30.133 -52.574 29.199 C-44.432 16.118 -35.462 3.875 -19.852 -0.613 C-13.63 -1.674 -5.85 -2.728 0 0 Z " fill="#0AA053" transform="translate(139.26171875,295.0546875)"/>
<path d="M0 0 C0.597 0.371 1.194 0.743 1.809 1.125 C3.832 2.298 3.832 2.298 7.562 2 C9.272 0.968 10.982 -0.065 12.691 -1.098 C15.74 -2.568 18.267 -2.444 21.562 -2 C23.5 -0.938 23.5 -0.938 24.562 1 C25.834 10.261 19.866 17.277 15.051 24.68 C12.922 27.999 12.444 29.711 12.5 33.625 C12.509 34.442 12.518 35.26 12.527 36.102 C12.539 36.728 12.551 37.355 12.562 38 C17.799 37.568 20.254 35.98 24.125 32.5 C29.894 27.328 29.894 27.328 34.562 27 C35.562 28 35.562 28 35.562 31 C34.009 40.38 24.752 46.795 17.562 52 C16.869 52.519 16.175 53.039 15.461 53.574 C10.74 56.857 6.359 58.334 0.562 58 C-4.528 56.38 -6.188 52.361 -8.52 47.863 C-8.822 47.248 -9.125 46.634 -9.438 46 C-10.056 46.58 -10.056 46.58 -10.688 47.172 C-17.839 53.621 -23.724 56.856 -33.59 56.52 C-38.031 55.709 -40.81 53.626 -43.438 50 C-46.302 44.153 -46.327 38.368 -45.438 32 C-40.762 18.868 -31.817 6.725 -19.688 -0.375 C-13.275 -3.333 -6.252 -3.26 0 0 Z " fill="#099F53" transform="translate(158.4375,342)"/>
<path d="M0 0 C23.621 -0.672 42.304 3.246 63 15 C62.59 15.485 62.18 15.969 61.758 16.469 C58.902 20.022 56.816 22.668 56.188 27.25 C55 31 55 31 53.168 32.145 C51.609 32.769 50.038 33.363 48.457 33.93 C44.902 35.478 42.425 37.873 39.629 40.512 C38 42 38 42 36 43 C35.361 42.092 34.721 41.185 34.062 40.25 C30.132 35.604 25.324 33.432 19.324 32.652 C14.372 32.491 10.506 33.061 5.875 34.812 C2.773 35.896 1.516 36.18 -1.625 35.086 C-3.861 33.835 -5.943 32.525 -8 31 C-7.625 30.466 -7.25 29.933 -6.863 29.383 C1.112 18.611 1.112 18.611 3 6 C2.028 3.986 1.031 1.984 0 0 Z " fill="#F7E7CE" transform="translate(340,296)"/>
<path d="M0 0 C5.789 3.879 9.225 9.64 12.5 15.625 C12.85 16.258 13.201 16.891 13.562 17.543 C15.616 21.507 16.573 24.546 16 29 C10.671 35.783 3.454 38.48 -4.625 40.438 C-5.438 40.644 -6.25 40.85 -7.087 41.062 C-11.591 42.194 -16.108 43.265 -20.629 44.324 C-22.021 44.651 -22.021 44.651 -23.441 44.985 C-25.224 45.4 -27.008 45.81 -28.793 46.213 C-32.757 47.127 -36.505 48.138 -40.281 49.66 C-43.794 50.926 -45.685 51.304 -49.312 50.812 C-50.134 50.716 -50.955 50.619 -51.801 50.52 C-54 50 -54 50 -57 48 C-56.582 47.618 -56.165 47.236 -55.734 46.842 C-45.747 37.785 -45.747 37.785 -36.655 27.856 C-34.995 25.994 -33.263 24.434 -31.355 22.828 C-25.933 18.146 -20.994 13.01 -16.004 7.877 C-15.286 7.148 -14.568 6.419 -13.828 5.668 C-13.188 5.011 -12.547 4.354 -11.888 3.677 C-8.2 0.401 -4.917 -0.946 0 0 Z " fill="#E58A54" transform="translate(486,256)"/>
<path d="M0 0 C4.805 2.403 6.231 6.057 7.973 10.883 C8.312 11.911 8.651 12.94 9 14 C9.586 15.76 9.586 15.76 10.184 17.555 C13.3 27.341 15.388 37.274 17.301 47.358 C18.308 52.666 19.399 57.838 21 63 C19.062 62.522 17.125 62.043 15.188 61.562 C14.109 61.296 13.03 61.029 11.918 60.754 C9.926 60.239 7.952 59.651 6 59 C6 58.34 6 57.68 6 57 C5.34 57 4.68 57 4 57 C2.687 55.661 2.687 55.661 1.109 53.73 C-1.972 50.105 -5.222 46.702 -8.609 43.363 C-9.107 42.872 -9.604 42.38 -10.116 41.874 C-12.184 39.833 -14.255 37.797 -16.332 35.764 C-17.866 34.26 -19.394 32.75 -20.922 31.238 C-21.825 30.352 -22.728 29.465 -23.659 28.552 C-26.66 25.28 -28.705 22.508 -29.562 18.125 C-28.562 12.565 -25.082 9.451 -20.551 6.293 C-13.939 2.231 -7.944 -1.227 0 0 Z " fill="#E58953" transform="translate(389,231)"/>
<path d="M0 0 C1.062 0.65 2.124 1.299 3.219 1.969 C8.84 4.775 14.332 4.505 20.5 4.5 C34.021 4.77 48.514 5.252 59 15 C65.886 22.469 67.355 29.031 67 39 C66.051 38.175 65.103 37.35 64.125 36.5 C54.276 26.768 54.276 26.768 42 22 C42.736 22.447 43.472 22.895 44.23 23.355 C54.401 29.657 54.401 29.657 58 34 C58 34.66 58 35.32 58 36 C49.067 40.833 42.236 41.095 32.5 38.375 C17.356 33.268 9.346 24.491 2.348 10.43 C0.964 6.908 0.377 3.754 0 0 Z " fill="#D1DE4F" transform="translate(337,162)"/>
<path d="M0 0 C1.042 -0.029 2.083 -0.058 3.156 -0.088 C10.85 -0.152 10.85 -0.152 14.789 2.207 C18.032 5.926 17.961 8.794 17.906 13.59 C17.146 20.946 12.633 27.284 8.625 33.312 C7.043 29.313 8.293 26.411 9.562 22.438 C11.018 17.868 11.867 14.118 11.625 9.312 C11.295 9.312 10.965 9.312 10.625 9.312 C10.688 10.224 10.751 11.135 10.816 12.074 C10.807 17.635 9.092 22.822 7.562 28.125 C7.25 29.223 6.937 30.322 6.614 31.454 C4.62 38.298 2.435 45.034 -0.125 51.688 C-0.406 52.423 -0.687 53.159 -0.977 53.917 C-2.359 57.362 -3.655 59.807 -6.375 62.312 C-9.704 55.464 -11.939 48.524 -13.938 41.188 C-14.391 39.536 -14.391 39.536 -14.854 37.852 C-21.637 12.805 -21.637 12.805 -19.375 5.312 C-13.689 -0.524 -7.636 0.07 0 0 Z " fill="#E58A54" transform="translate(419.375,223.6875)"/>
<path d="M0 0 C4.81 0.497 9.613 0.877 14.438 1.188 C15.73 1.271 17.023 1.355 18.355 1.441 C19.311 1.502 20.266 1.563 21.25 1.625 C21.25 1.955 21.25 2.285 21.25 2.625 C20.462 2.833 19.675 3.04 18.863 3.254 C-5.454 10.132 -24.274 27.009 -36.75 48.625 C-40.831 56.002 -44.351 63.434 -47.188 71.375 C-48.865 75.581 -50.164 77.414 -54.312 79.312 C-56.566 80.074 -56.566 80.074 -58.75 80.625 C-59.502 80.817 -60.253 81.009 -61.027 81.207 C-61.596 81.345 -62.164 81.483 -62.75 81.625 C-62.163 57.981 -44.526 34.058 -28.75 17.625 C-27.435 16.215 -27.435 16.215 -26.094 14.777 C-19.2 7.516 -10.754 -1.206 0 0 Z " fill="#E28C56" transform="translate(366.75,214.375)"/>
<path d="M0 0 C24.835 9.658 43.156 32.481 53.906 56.16 C55.986 61.559 56.097 66.291 56 72 C53.188 73.562 53.188 73.562 50 75 C49.01 74.67 48.02 74.34 47 74 C46.093 71.551 45.363 69.2 44.688 66.688 C41.07 54.325 35.736 43.354 26.262 34.348 C25 33 25 33 25 31 C24.411 30.734 23.822 30.469 23.215 30.195 C20.942 28.969 19.422 27.656 17.562 25.875 C11.242 20.197 3.655 15.66 -4 12 C-3.335 7.611 -1.812 4.019 0 0 Z " fill="#E48B54" transform="translate(471,213)"/>
<path d="M0 0 C2.5 0.125 2.5 0.125 5 1 C6.312 3.062 6.312 3.062 7 5 C7.66 5 8.32 5 9 5 C9.33 4.01 9.66 3.02 10 2 C11.938 2.75 11.938 2.75 14 4 C14.96 6.332 15.212 7.479 14.25 9.84 C13.838 10.532 13.425 11.224 13 11.938 C9.257 18.933 7.074 26.453 4.648 33.977 C3.229 38.373 1.658 42.688 0 47 C-0.99 47 -1.98 47 -3 47 C-4.617 39.502 -2.976 33.322 -1 26 C-1.605 26.654 -2.209 27.307 -2.832 27.98 C-5 30 -5 30 -7.688 30.312 C-10 30 -10 30 -11 29 C-11.989 18.942 -8.061 9.942 -2 2 C-1.34 1.34 -0.68 0.68 0 0 Z M31 3 C32.938 3.812 32.938 3.812 35 5 C36.212 8.635 35.678 9.362 34.25 12.812 C31.711 19.39 30.331 26.092 29 33 C27.02 32.34 25.04 31.68 23 31 C23 29.02 23 27.04 23 25 C22.278 25.99 21.556 26.98 20.812 28 C18.381 30.929 18.381 30.929 15.312 31.5 C13 31 13 31 11 29 C10.213 20.863 11.908 12.449 16.637 5.645 C17.087 5.102 17.536 4.559 18 4 C18.99 4.33 19.98 4.66 21 5 C21 5.66 21 6.32 21 7 C21.66 7 22.32 7 23 7 C22.807 7.534 22.613 8.067 22.414 8.617 C20.413 14.343 19.059 20.031 18 26 C18.66 26 19.32 26 20 26 C20.246 25.355 20.492 24.711 20.746 24.047 C22.39 20.052 24.221 16.157 26.062 12.25 C26.427 11.47 26.791 10.69 27.166 9.887 C27.515 9.146 27.863 8.404 28.223 7.641 C28.54 6.965 28.857 6.29 29.184 5.595 C30 4 30 4 31 3 Z " fill="#E58C56" transform="translate(193,242)"/>
<path d="M0 0 C6.517 1.692 13.229 4.046 17 10 C16.825 22.464 4.19 33.594 -4 42 C-4.602 42.623 -5.204 43.245 -5.825 43.887 C-7.77 45.892 -9.726 47.885 -11.688 49.875 C-12.293 50.494 -12.898 51.112 -13.522 51.75 C-17.673 55.907 -22.011 59.861 -27 63 C-27.66 63 -28.32 63 -29 63 C-27.727 58.051 -26.07 53.868 -23.688 49.312 C-19.105 40.401 -14.926 31.305 -10.745 22.2 C-7.302 14.727 -3.728 7.336 0 0 Z " fill="#E58A54" transform="translate(458,235)"/>
<path d="M0 0 C3.132 2.517 4.43 5.027 5.043 8.961 C5.374 14.621 4.25 17.917 0.574 22.25 C-4.662 27.175 -9.154 28.186 -16.266 27.98 C-14.875 30.192 -13.478 32.4 -12.078 34.605 C-11.691 35.223 -11.303 35.84 -10.904 36.477 C-6.565 43.737 -6.565 43.737 -0.266 48.98 C-0.926 51.29 -1.586 53.6 -2.266 55.98 C-4.741 56.475 -4.741 56.475 -7.266 56.98 C-10.84 52.902 -13.082 48.643 -15.391 43.793 C-17.772 38.52 -17.772 38.52 -21.266 33.98 C-21.664 35.479 -21.664 35.479 -22.07 37.008 C-22.427 38.311 -22.783 39.615 -23.141 40.918 C-23.315 41.577 -23.489 42.237 -23.668 42.916 C-24.14 44.622 -24.698 46.304 -25.266 47.98 C-26.256 48.475 -26.256 48.475 -27.266 48.98 C-29.391 48.043 -29.391 48.043 -31.266 46.98 C-31.57 42.041 -30.547 38.149 -28.766 33.605 C-28.504 32.922 -28.243 32.239 -27.974 31.535 C-24.921 23.767 -21.136 16.367 -17.266 8.98 C-13.391 10.73 -13.391 10.73 -12.266 12.98 C-13.262 15.363 -13.262 15.363 -14.703 18.105 C-15.176 19.016 -15.649 19.926 -16.137 20.863 C-16.509 21.562 -16.882 22.261 -17.266 22.98 C-15.342 22.27 -13.427 21.536 -11.516 20.793 C-9.915 20.184 -9.915 20.184 -8.281 19.562 C-4.91 17.794 -3.317 16.164 -1.266 12.98 C-0.848 9.812 -0.848 9.812 -1.266 6.98 C-2.956 5.29 -5.014 5.728 -7.328 5.668 C-16.5 5.775 -22.309 10.43 -29.266 15.98 C-32.188 13.27 -32.188 13.27 -32.891 10.668 C-31.877 6.311 -28.876 4.396 -25.266 1.98 C-18.101 -1.858 -7.6 -3.42 0 0 Z " fill="#E58C57" transform="translate(86.265625,226.01953125)"/>
<path d="M0 0 C8.661 1.26 15.318 8.936 21.188 14.938 C21.916 15.663 22.644 16.388 23.395 17.135 C27.559 21.341 31.145 25.58 34.438 30.5 C33.885 30.359 33.332 30.219 32.762 30.073 C25.118 28.32 17.693 28.167 9.875 28.188 C8.612 28.171 7.35 28.155 6.049 28.139 C-0.362 28.135 -5.788 28.369 -11.711 30.952 C-13.994 31.628 -15.335 31.245 -17.562 30.5 C-18.686 22.258 -14.27 15.38 -9.676 8.797 C-3.421 0.668 -3.421 0.668 0 0 Z " fill="#E58A54" transform="translate(351.5625,255.5)"/>
<path d="M0 0 C3.375 0.625 3.375 0.625 5.375 2.188 C6.813 5.692 6.283 7.991 5.375 11.625 C3.812 14.062 3.812 14.062 2.375 15.625 C1.055 15.295 -0.265 14.965 -1.625 14.625 C-1.625 13.635 -1.625 12.645 -1.625 11.625 C-0.635 11.625 0.355 11.625 1.375 11.625 C1.375 10.305 1.375 8.985 1.375 7.625 C0.055 7.955 -1.265 8.285 -2.625 8.625 C-3.466 11.5 -3.9 13.025 -2.629 15.801 C-2.153 16.506 -1.678 17.211 -1.188 17.938 C1.575 22.563 2.088 25.277 1.375 30.625 C-0.262 34.211 -1.315 35.418 -4.625 37.625 C-10.847 37.403 -10.847 37.403 -13.5 34.75 C-14.625 32.625 -14.625 32.625 -15.625 29.625 C-16.037 30.058 -16.45 30.491 -16.875 30.938 C-20.028 33.978 -22.371 36.067 -26.875 36.25 C-30.625 35.625 -30.625 35.625 -32.625 34.062 C-34.938 28.425 -33.539 23.252 -31.535 17.762 C-29.085 12.01 -25.686 8.137 -20.625 4.625 C-17.875 4.188 -17.875 4.188 -15.625 4.625 C-13.625 6.625 -13.625 6.625 -13.25 10 C-13.625 13.625 -13.625 13.625 -15.188 16 C-18.304 18.077 -20.93 18.341 -24.625 18.625 C-25.783 22.098 -25.694 24.986 -25.625 28.625 C-21.951 28.319 -20.844 27.867 -18.312 25.062 C-17.756 24.258 -17.199 23.454 -16.625 22.625 C-15.635 22.955 -14.645 23.285 -13.625 23.625 C-13.213 23.109 -12.8 22.594 -12.375 22.062 C-11.798 21.588 -11.22 21.114 -10.625 20.625 C-8.438 20.938 -8.438 20.938 -6.625 21.625 C-6.625 22.285 -6.625 22.945 -6.625 23.625 C-7.285 23.955 -7.945 24.285 -8.625 24.625 C-9.281 27.152 -9.281 27.152 -9.625 29.625 C-6.375 28.537 -6.375 28.537 -3.625 26.625 C-3.075 23.406 -3.098 21.378 -5 18.66 C-5.557 17.989 -6.114 17.317 -6.688 16.625 C-9.603 12.991 -9.603 12.991 -9.812 9.5 C-7.672 4.318 -5.736 0.989 0 0 Z " fill="#E58E59" transform="translate(177.625,239.375)"/>
<path d="M0 0 C3.26 0.694 4.79 1.459 7 4 C6.67 4.99 6.34 5.98 6 7 C5.01 7.33 4.02 7.66 3 8 C1.982 9.865 1.982 9.865 1.312 12.062 C1.061 12.796 0.81 13.529 0.551 14.285 C0.369 14.851 0.187 15.417 0 16 C1.258 15.938 2.516 15.876 3.812 15.812 C6.487 15.822 7.715 15.836 10.062 17.188 C11.381 19.737 10.798 21.317 10 24 C10.375 23.555 10.75 23.111 11.137 22.652 C12.687 20.938 14.16 19.401 16 18 C18.875 18.125 18.875 18.125 21 19 C21.25 25.625 21.25 25.625 19 29 C17.68 28.67 16.36 28.34 15 28 C15 26.68 15 25.36 15 24 C8.462 28.4 6.774 32.407 4.824 39.977 C4.118 42.568 3.303 44.667 2 47 C0.35 46.34 -1.3 45.68 -3 45 C-2.678 35.988 0.683 28.267 4 20 C2.02 20.33 0.04 20.66 -2 21 C-6.413 32.843 -9.957 44.735 -13 57 C-14.65 56.34 -16.3 55.68 -18 55 C-18.26 48.942 -17.467 44.128 -15.625 38.375 C-15.403 37.651 -15.182 36.926 -14.953 36.18 C-13.697 32.099 -12.365 28.045 -11 24 C-12.98 24.99 -12.98 24.99 -15 26 C-15.365 20.529 -15.365 20.529 -13.75 18.188 C-12 17 -12 17 -10.024 16.651 C-7.899 16.182 -7.899 16.182 -6.812 14.418 C-6.497 13.753 -6.183 13.088 -5.859 12.402 C-5.511 11.684 -5.163 10.965 -4.805 10.225 C-4.457 9.47 -4.109 8.715 -3.75 7.938 C-3.386 7.179 -3.023 6.42 -2.648 5.639 C-1.753 3.765 -0.875 1.883 0 0 Z " fill="#E58D58" transform="translate(126,228)"/>
<path d="M0 0 C4.783 4.166 6.607 10.629 7.324 16.781 C7.447 23.334 6.384 29.612 5 36 C4.34 36 3.68 36 3 36 C1.39 38.009 -0.019 40.121 -1.465 42.25 C-1.971 42.827 -2.478 43.405 -3 44 C-3.99 44 -4.98 44 -6 44 C-7.969 40.13 -9.863 36.336 -11.5 32.312 C-12.977 29.052 -14.647 26.677 -17 24 C-15.916 21.074 -14.927 19.946 -12.375 18.062 C-6.837 13.742 -3.111 6.222 0 0 Z " fill="#D1DE50" transform="translate(413,146)"/>
<path d="M0 0 C3.125 2.062 3.125 2.062 5 5 C5.067 8.827 4.717 11.025 2.438 14.125 C0 16 0 16 -1.938 17.07 C-6.014 19.334 -8.345 20.823 -10 25.312 C-10.33 26.529 -10.66 27.746 -11 29 C-13.75 29.312 -13.75 29.312 -17 29 C-20.627 25.373 -21.825 22.448 -22.438 17.375 C-22.356 11.858 -19.571 8.021 -16 4 C-11.413 -0.074 -5.938 -1.263 0 0 Z " fill="#F7FBF9" transform="translate(450,345)"/>
<path d="M0 0 C20.511 3.49 20.511 3.49 27.375 6.574 C26.064 10.809 24.431 14.648 22.375 18.574 C17.615 17.56 12.991 16.456 8.344 15.012 C2.071 13.288 -3.846 13.232 -10.312 13.387 C-11.408 13.4 -12.503 13.414 -13.631 13.428 C-16.296 13.463 -18.96 13.512 -21.625 13.574 C-20.885 13.012 -20.145 12.45 -19.383 11.871 C-16.758 9.685 -14.72 7.407 -12.5 4.824 C-8.338 0.696 -5.823 -0.505 0 0 Z " fill="#E48B54" transform="translate(429.625,197.42578125)"/>
<path d="M0 0 C3.126 1.563 3.391 4.235 4.625 7.438 C9.308 18.87 16.327 27.335 27.875 32.215 C33.627 34.364 38.827 36.144 45 36.125 C45.846 36.128 46.691 36.13 47.562 36.133 C49.954 36.082 49.954 36.082 52.023 35.48 C54.349 34.915 56.244 34.977 58.625 35.188 C59.401 35.243 60.177 35.298 60.977 35.355 C63 36 63 36 64.273 38.051 C64.513 38.694 64.753 39.337 65 40 C52.785 45.509 40.735 45.13 28 41 C15.736 36.078 8.302 27.338 3.152 15.34 C1.417 10.31 0.552 5.281 0 0 Z " fill="#3F5D50" transform="translate(336,165)"/>
<path d="M0 0 C3.293 0.319 4.865 1.545 7 4 C7.66 3.01 8.32 2.02 9 1 C10.32 1.66 11.64 2.32 13 3 C12.2 8.937 10.539 14.616 8.938 20.375 C8.656 21.397 8.374 22.419 8.084 23.473 C7.392 25.983 6.697 28.492 6 31 C4.35 30.67 2.7 30.34 1 30 C0.67 28.02 0.34 26.04 0 24 C-0.722 24.846 -1.444 25.691 -2.188 26.562 C-5 29 -5 29 -7.812 28.812 C-8.534 28.544 -9.256 28.276 -10 28 C-10.771 17.929 -8.028 10.038 -2 2 C-1.34 1.34 -0.68 0.68 0 0 Z " fill="#E58B56" transform="translate(285,244)"/>
<path d="M0 0 C3.704 2.027 5.654 3.48 8 7 C8.699 11.797 8.715 15.775 6.25 20 C2.357 23.461 -0.514 24.605 -5.898 24.434 C-9.972 23.593 -12.621 21.343 -15 18 C-16.126 14.902 -16.404 12.269 -16 9 C-12.558 1.851 -7.899 -0.97 0 0 Z " fill="#E38A52" transform="translate(511,194)"/>
<path d="M0 0 C1.938 0.812 1.938 0.812 4 2 C5.212 5.635 4.678 6.362 3.25 9.812 C0.711 16.39 -0.669 23.092 -2 30 C-3.98 29.34 -5.96 28.68 -8 28 C-8 26.02 -8 24.04 -8 22 C-8.722 22.99 -9.444 23.98 -10.188 25 C-12.619 27.929 -12.619 27.929 -15.688 28.5 C-18 28 -18 28 -20 26 C-20.787 17.863 -19.092 9.449 -14.363 2.645 C-13.913 2.102 -13.464 1.559 -13 1 C-12.01 1.33 -11.02 1.66 -10 2 C-10 2.66 -10 3.32 -10 4 C-9.34 4 -8.68 4 -8 4 C-8.193 4.534 -8.387 5.067 -8.586 5.617 C-10.587 11.343 -11.941 17.031 -13 23 C-12.34 23 -11.68 23 -11 23 C-10.754 22.355 -10.508 21.711 -10.254 21.047 C-8.61 17.052 -6.779 13.157 -4.938 9.25 C-4.573 8.47 -4.209 7.69 -3.834 6.887 C-3.485 6.146 -3.137 5.404 -2.777 4.641 C-2.46 3.965 -2.143 3.29 -1.816 2.595 C-1 1 -1 1 0 0 Z " fill="#E58D59" transform="translate(224,245)"/>
<path d="M0 0 C3.96 1.98 3.96 1.98 8 4 C7.67 4.66 7.34 5.32 7 6 C7.852 8.311 7.852 8.311 9.188 10.812 C9.614 11.665 10.041 12.517 10.48 13.395 C19.02 28.036 37.587 32.776 53 37 C52.505 37.99 52.505 37.99 52 39 C42.269 42.244 32.185 38.87 23.23 34.715 C12.037 28.542 5.594 18.691 1 7 C0.592 4.679 0.236 2.345 0 0 Z " fill="#A3C968" transform="translate(337,162)"/>
<path d="M0 0 C-0.448 10.534 -7.984 17.534 -15.172 24.535 C-18.927 27.808 -23.759 32 -29 32 C-27.515 21.23 -20.539 9.533 -12 3 C-8.007 0.043 -4.98 -1.811 0 0 Z " fill="#F7FBF8" transform="translate(133,304)"/>
<path d="M0 0 C1.938 1.062 1.938 1.062 3 3 C3.365 6.409 3.614 8.88 1.938 11.938 C-1.12 13.614 -3.591 13.365 -7 13 C-8.938 11.938 -8.938 11.938 -10 10 C-10.365 6.591 -10.614 4.12 -8.938 1.062 C-5.88 -0.614 -3.409 -0.365 0 0 Z M3.625 12.875 C7.68 14.227 9.024 15.214 11 19 C11.075 23.285 10.691 25.23 7.812 28.438 C4.437 30.313 2.799 30.712 -1 30 C-4.627 27.398 -5.823 25.901 -6.688 21.5 C-6 18 -6 18 -3.438 15 C0 13 0 13 3.625 12.875 Z " fill="#2AA864" transform="translate(515,159)"/>
<path d="M0 0 C2.25 0.438 2.25 0.438 4.25 2.438 C4.676 6.267 4.837 8.545 2.688 11.812 C-0.429 13.89 -3.055 14.153 -6.75 14.438 C-7.908 17.911 -7.819 20.798 -7.75 24.438 C-4.094 24.133 -3.004 23.735 -0.562 20.875 C0.036 20.071 0.634 19.266 1.25 18.438 C1.91 18.438 2.57 18.438 3.25 18.438 C3.182 21.827 2.978 24.462 0.906 27.238 C-2.174 30.171 -4.689 31.831 -9 32.062 C-12.75 31.438 -12.75 31.438 -14.75 29.875 C-17.063 24.238 -15.664 19.064 -13.66 13.574 C-11.135 7.646 -6.773 1.077 0 0 Z " fill="#E58C57" transform="translate(159.75,243.5625)"/>
<path d="M0 0 C2 2 2 2 2.375 5.938 C2.287 8.792 2.235 9.699 0.438 12 C-2.799 13.328 -5.539 13.2 -9 13 C-10.176 16.674 -10.074 20.169 -10 24 C-8.02 24 -6.04 24 -4 24 C-3.711 23.381 -3.422 22.762 -3.125 22.125 C-2 20 -2 20 0 18 C0.875 20.062 0.875 20.062 1 23 C-1.091 26.236 -3.524 29.262 -7 31 C-13.204 31.451 -13.204 31.451 -15.875 29.938 C-18.668 25.128 -18.176 20.796 -17 15.562 C-14.723 7.911 -8.852 -0.908 0 0 Z " fill="#E58C57" transform="translate(105,244)"/>
<path d="M0 0 C2 2 2 2 2.375 5.938 C2.288 8.777 2.259 9.678 0.438 11.938 C-2.682 13.297 -5.627 13.676 -9 14 C-9.168 15.458 -9.334 16.917 -9.5 18.375 C-9.639 19.593 -9.639 19.593 -9.781 20.836 C-10.034 22.969 -10.034 22.969 -10 25 C-5.34 23.876 -5.34 23.876 -2.25 20.375 C-1.838 19.591 -1.425 18.808 -1 18 C-0.34 18 0.32 18 1 18 C0.744 22.355 0.427 24.496 -2.438 27.875 C-6.439 31.193 -8.798 31.365 -14 31 C-16.323 29.362 -16.922 28.43 -17.434 25.617 C-17.447 15.873 -14.702 9.046 -8 2 C-4.776 -0.149 -3.733 -0.383 0 0 Z " fill="#E58B56" transform="translate(243,244)"/>
<path d="M0 0 C-0.554 1.051 -1.109 2.101 -1.68 3.184 C-9.776 18.73 -9.776 18.73 -9 35.938 C-8.67 36.948 -8.34 37.959 -8 39 C-14.435 39.495 -14.435 39.495 -21 40 C-19.644 31.58 -17.551 23.632 -15 15.5 C-14.644 14.335 -14.288 13.169 -13.922 11.969 C-11.262 3.392 -11.262 3.392 -9 0 C-5.42 -0.914 -3.535 -1.178 0 0 Z " fill="#F7E7CE" transform="translate(115,354)"/>
<path d="M0 0 C1.32 0.33 2.64 0.66 4 1 C2.019 6.082 -0.211 11.05 -2.434 16.029 C-4.173 19.967 -5.712 23.885 -7 28 C-8.32 28 -9.64 28 -11 28 C-11.33 27.01 -11.66 26.02 -12 25 C-12.577 25.516 -13.155 26.031 -13.75 26.562 C-16 28 -16 28 -18.141 27.59 C-18.754 27.395 -19.368 27.201 -20 27 C-19.728 20.89 -18.97 16.904 -15 12 C-14.505 11.361 -14.01 10.721 -13.5 10.062 C-12 9 -12 9 -9.938 9.312 C-9.298 9.539 -8.659 9.766 -8 10 C-7.34 10 -6.68 10 -6 10 C-4.406 7.751 -4.406 7.751 -2.875 5 C-2.336 4.072 -1.797 3.144 -1.242 2.188 C-0.832 1.466 -0.422 0.744 0 0 Z " fill="#E58E59" transform="translate(315,402)"/>
<path d="M0 0 C2.125 0.375 2.125 0.375 4 1 C3.009 4.523 1.439 6.747 -1 9.375 C-4.542 13.268 -7.466 17.441 -10.375 21.812 C-10.816 22.471 -11.257 23.13 -11.711 23.808 C-13.492 26.514 -14.971 28.913 -16 32 C-18.867 31.427 -19.861 31.139 -22 29 C-22.772 20.655 -22.157 12.107 -20 4 C-19.67 3.67 -19.34 3.34 -19 3 C-17.35 3 -15.7 3 -14 3 C-14.66 9.27 -15.32 15.54 -16 22 C-15.34 22 -14.68 22 -14 22 C-13.66 21 -13.66 21 -13.312 19.98 C-11.612 16.12 -9.364 12.794 -7 9.312 C-6.549 8.636 -6.098 7.96 -5.633 7.264 C-3.864 4.634 -2.248 2.248 0 0 Z " fill="#E6905D" transform="translate(370,400)"/>
<path d="M0 0 C1.938 0.75 1.938 0.75 4 2 C4.75 4.125 4.75 4.125 5 6 C5.743 5.34 6.485 4.68 7.25 4 C10 2 10 2 14 2 C15.231 8.4 15.231 8.4 14.062 11.438 C13.537 12.211 13.537 12.211 13 13 C10.525 12.505 10.525 12.505 8 12 C8.33 10.68 8.66 9.36 9 8 C3.363 11.393 0.649 14.929 -0.993 21.215 C-1.735 24.467 -2.401 27.718 -3 31 C-4.98 30.34 -6.96 29.68 -9 29 C-8.737 18.401 -4.777 9.331 0 0 Z " fill="#E58E59" transform="translate(253,244)"/>
<path d="M0 0 C3.238 2.216 3.898 3.651 5 7.438 C5 11 5 11 3.188 13.875 C-0.048 17.018 -2.411 17.468 -6.957 17.41 C-9 17 -9 17 -12 14.375 C-14.181 10.694 -14.887 9.17 -14 5 C-9.362 -0.493 -7.035 -1.577 0 0 Z " fill="#0DA155" transform="translate(417,318)"/>
<path d="M0 0 C1.32 0.99 2.64 1.98 4 3 C3.67 4.65 3.34 6.3 3 8 C3.375 7.555 3.75 7.111 4.137 6.652 C5.687 4.938 7.16 3.401 9 2 C11.875 2.125 11.875 2.125 14 3 C14.25 9.625 14.25 9.625 12 13 C10.68 12.67 9.36 12.34 8 12 C8 10.68 8 9.36 8 8 C1.462 12.4 -0.226 16.407 -2.176 23.977 C-2.882 26.568 -3.697 28.667 -5 31 C-7.475 30.01 -7.475 30.01 -10 29 C-9.455 18.464 -6.116 8.594 0 0 Z " fill="#E58B55" transform="translate(133,244)"/>
<path d="M0 0 C1 1 1 1 1.25 4.125 C0.77 11.562 -2.416 15.875 -7.086 21.398 C-9.408 23.342 -10.993 23.814 -14 24 C-16 22 -16 22 -16.438 19 C-16.254 13.146 -13.251 7.64 -9.508 3.25 C-6.451 0.463 -4.116 -0.706 0 0 Z " fill="#F8FCF9" transform="translate(148,354)"/>
<path d="M0 0 C2.062 0.312 2.062 0.312 4 1 C4.66 1 5.32 1 6 1 C7.338 1.315 8.672 1.646 10 2 C9.276 6.047 8.166 9.891 6.938 13.812 C6.575 14.974 6.213 16.135 5.84 17.332 C5.563 18.212 5.286 19.093 5 20 C3.062 19.688 3.062 19.688 1 19 C0.67 18.01 0.34 17.02 0 16 C-0.577 16.516 -1.155 17.031 -1.75 17.562 C-4 19 -4 19 -6.25 18.688 C-6.827 18.461 -7.405 18.234 -8 18 C-8.664 11.626 -6.879 8.026 -3 3 C-1.461 1.246 -1.461 1.246 0 0 Z " fill="#E58D59" transform="translate(370,411)"/>
<path d="M0 0 C6.142 9.212 8.344 19.679 6.594 30.516 C4.718 38.364 0.047 46.335 -6.758 50.816 C-7.868 51.402 -7.868 51.402 -9 52 C-9.47 49.239 -9.662 47.679 -9 45 C-7.324 43.023 -7.324 43.023 -5.188 40.938 C1.392 34.102 2.073 25.229 2.312 16.062 C2.191 11.711 1.346 8.121 0 4 C0 2.68 0 1.36 0 0 Z " fill="#3F5E50" transform="translate(417,149)"/>
<path d="M0 0 C0.971 -0.014 1.941 -0.028 2.941 -0.043 C5.438 0.188 5.438 0.188 7.438 2.188 C8.072 6.175 7.644 7.855 5.5 11.312 C2.22 14.884 -1.994 16.733 -6.562 18.188 C-7.552 18.188 -8.543 18.188 -9.562 18.188 C-9.274 17.486 -8.985 16.785 -8.688 16.062 C-8.316 15.114 -7.945 14.165 -7.562 13.188 C-7.129 12.177 -6.696 11.166 -6.25 10.125 C-5.2 7.189 -5.2 7.189 -6.938 4.938 C-7.474 4.36 -8.01 3.782 -8.562 3.188 C-8.562 2.528 -8.562 1.868 -8.562 1.188 C-5.48 0.16 -3.231 0.022 0 0 Z " fill="#FDFAF7" transform="translate(78.5625,230.8125)"/>
<path d="M0 0 C3.704 2.027 5.654 3.48 8 7 C8.699 11.797 8.715 15.775 6.25 20 C2.357 23.461 -0.514 24.605 -5.898 24.434 C-9.972 23.593 -12.621 21.343 -15 18 C-16.126 14.902 -16.404 12.269 -16 9 C-12.558 1.851 -7.899 -0.97 0 0 Z M-12 7 C-13.158 10.98 -13.453 13.028 -11.688 16.812 C-10.038 19.048 -10.038 19.048 -8 21 C-3.161 21.555 -1.086 21.724 3 19 C5.22 15.671 5.755 13.861 5.48 9.938 C4.611 6.431 2.92 4.988 0 3 C-5.357 2.139 -8.404 2.875 -12 7 Z " fill="#20A45D" transform="translate(511,194)"/>
<path d="M0 0 C2.438 1.625 2.438 1.625 4 4 C4.562 6.938 4.562 6.938 4 10 C1.514 13.363 0.086 14.801 -4.062 15.562 C-7 15 -7 15 -9.375 13.438 C-11.623 10.065 -11.568 7.975 -11 4 C-8.112 -0.505 -5.118 -0.731 0 0 Z " fill="#E18C53" transform="translate(504,179)"/>
<path d="M0 0 C1.32 0.66 2.64 1.32 4 2 C2.312 11.514 -0.351 20.719 -3 30 C-5.438 29.188 -5.438 29.188 -8 28 C-9.27 24.189 -8.358 21.605 -7.312 17.875 C-7.038 16.872 -7.038 16.872 -6.759 15.849 C-3.178 3.178 -3.178 3.178 0 0 Z " fill="#E58D58" transform="translate(273,244)"/>
<path d="M0 0 C1 1 1 1 1.188 3.438 C1 6 1 6 -1 8 C-2.988 8.398 -4.989 8.738 -7 9 C-7.33 10.98 -7.66 12.96 -8 15 C-4.625 14.453 -2.918 13.945 0 12 C-0.269 15.313 -0.591 16.639 -3.125 18.875 C-6.829 20.324 -9.181 19.955 -13 19 C-14.759 15.483 -13.926 11.724 -13 8 C-9.963 2.773 -6.177 -0.488 0 0 Z " fill="#E6925F" transform="translate(406,411)"/>
<path d="M0 0 C0.33 1.65 0.66 3.3 1 5 C-2.188 7.125 -4.265 7.502 -8 8 C-8.33 9.98 -8.66 11.96 -9 14 C-5.625 13.453 -3.918 12.945 -1 11 C-1.188 13.312 -1.188 13.312 -2 16 C-4.563 18.065 -6.368 18.91 -9.625 19.375 C-12 19 -12 19 -13.875 17.938 C-15.728 14.746 -14.874 12.496 -14 9 C-12.476 5.337 -10.667 2.547 -7.562 0 C-4.561 -1.171 -3.035 -0.954 0 0 Z " fill="#E6925F" transform="translate(326,412)"/>
<path d="M0 0 C1.32 0.33 2.64 0.66 4 1 C2.281 6.517 -0.022 11.665 -2.434 16.902 C-4.516 21.541 -5.889 26.035 -7 31 C-8.65 30.67 -10.3 30.34 -12 30 C-11.007 23.822 -9.066 18.448 -6.562 12.75 C-6.262 12.065 -5.962 11.38 -5.652 10.674 C-3.985 6.958 -2.185 3.448 0 0 Z " fill="#E68F5B" transform="translate(337,401)"/>
<path d="M0 0 C1.32 0.33 2.64 0.66 4 1 C2.595 4.606 1.062 8.14 -0.513 11.674 C-3.345 18.036 -5.974 24.326 -8 31 C-9.32 30.67 -10.64 30.34 -12 30 C-11.369 18.859 -5.368 9.538 0 0 Z " fill="#E68E5A" transform="translate(389,401)"/>
<path d="M0 0 C1.32 0.33 2.64 0.66 4 1 C2.595 4.606 1.062 8.14 -0.513 11.674 C-3.345 18.036 -5.974 24.326 -8 31 C-9.32 30.67 -10.64 30.34 -12 30 C-11.369 18.859 -5.368 9.538 0 0 Z " fill="#E68E5A" transform="translate(396,401)"/>
<path d="M0 0 C3.901 5.852 2.204 13.537 1 20.188 C0.677 21.794 0.347 23.399 0 25 C-0.66 25 -1.32 25 -2 25 C-3.61 27.009 -5.019 29.121 -6.465 31.25 C-6.971 31.827 -7.478 32.405 -8 33 C-8.99 33 -9.98 33 -11 33 C-11.66 31.35 -12.32 29.7 -13 28 C-12.01 28 -11.02 28 -10 28 C-4.836 18.912 -2.189 10.146 0 0 Z " fill="#A0C869" transform="translate(418,157)"/>
<path d="M0 0 C2.938 0.75 2.938 0.75 4.938 2.75 C5.488 8.802 5.488 8.802 3.812 11.688 C1.016 13.272 -0.912 13.209 -4.062 12.75 C-6 11.188 -6 11.188 -7.062 8.75 C-6.938 5.125 -6.938 5.125 -6.062 1.75 C-3.062 -0.25 -3.062 -0.25 0 0 Z " fill="#E28B52" transform="translate(518.0625,174.25)"/>
<path d="M0 0 C0.66 0 1.32 0 2 0 C1.403 3.792 0.294 6.679 -1.5 10.062 C-3.572 14.057 -5.484 18.059 -7.258 22.195 C-7.649 23.1 -8.04 24.005 -8.443 24.937 C-9.225 26.756 -9.995 28.58 -10.752 30.408 C-11.115 31.247 -11.478 32.085 -11.852 32.949 C-12.169 33.705 -12.487 34.462 -12.815 35.241 C-14 37 -14 37 -16.134 37.753 C-16.75 37.835 -17.366 37.916 -18 38 C-16.546 33.225 -14.558 28.852 -12.305 24.414 C-11.952 23.712 -11.6 23.01 -11.237 22.287 C-10.12 20.065 -8.998 17.845 -7.875 15.625 C-7.113 14.111 -6.351 12.597 -5.59 11.082 C-3.731 7.386 -1.867 3.692 0 0 Z " fill="#ECF2E8" transform="translate(455,236)"/>
<path d="M0 0 C2.562 0.375 2.562 0.375 4.5 2 C5.562 4.375 5.562 4.375 4.75 7.625 C4.358 8.532 3.966 9.44 3.562 10.375 C1.312 11.125 1.312 11.125 -1.438 11.375 C-3.812 9.75 -3.812 9.75 -5.438 7.375 C-5.242 3.268 -4.375 0.673 0 0 Z " fill="#DB9355" transform="translate(511.4375,159.625)"/>
<path d="M0 0 C1.32 0 2.64 0 4 0 C3.549 5.281 1.792 8.163 -1.438 12.312 C-1.845 12.849 -2.253 13.386 -2.674 13.939 C-5.695 17.847 -5.695 17.847 -8 19 C-7.442 14.348 -6.151 10.839 -4 6.688 C-3.464 5.639 -2.928 4.591 -2.375 3.512 C-1 1 -1 1 0 0 Z " fill="#FBF4EE" transform="translate(196,248)"/>
<path d="M0 0 C2.438 1.625 2.438 1.625 4 4 C4.562 6.938 4.562 6.938 4 10 C1.514 13.363 0.086 14.801 -4.062 15.562 C-7 15 -7 15 -9.375 13.438 C-11.623 10.065 -11.568 7.975 -11 4 C-8.112 -0.505 -5.118 -0.731 0 0 Z M-7.375 2 C-9.257 3.967 -9.257 3.967 -9.438 7 C-9.217 9.939 -9.217 9.939 -7.812 11.875 C-5.345 13.407 -3.855 13.428 -1 13 C1.02 12.064 1.02 12.064 2 10 C1.765 6.355 1.765 6.355 1 3 C-3.133 1.096 -3.133 1.096 -7.375 2 Z " fill="#27A762" transform="translate(504,179)"/>
<path d="M0 0 C0.66 0 1.32 0 2 0 C2 8.144 -2.012 12.819 -7 19 C-8.303 15.09 -7.356 13.796 -5.75 10.062 C-5.312 9.022 -4.873 7.982 -4.422 6.91 C-3.146 4.3 -1.936 2.16 0 0 Z " fill="#FCF6EF" transform="translate(288,250)"/>
<path d="M0 0 C3.161 1.37 3.993 1.989 6 5 C5.924 9.185 5.639 11.288 2.812 14.438 C-0.506 16.281 -2.259 16.557 -6 16 C-8.375 14.625 -8.375 14.625 -10 13 C-10 12.34 -10 11.68 -10 11 C-9.196 11.495 -9.196 11.495 -8.375 12 C-5.407 13.25 -3.192 13.278 0 13 C2.364 11.063 2.364 11.063 2.312 7.562 C2.329 4.064 2.329 4.064 0.5 2.062 C0.005 1.712 -0.49 1.361 -1 1 C-0.67 0.67 -0.34 0.34 0 0 Z " fill="#1FA45D" transform="translate(520,173)"/>
<path d="M0 0 C0.99 0.33 1.98 0.66 3 1 C2.685 1.594 2.371 2.189 2.047 2.801 C-0.828 8.369 -3.114 13.872 -5.008 19.848 C-5.335 20.558 -5.663 21.268 -6 22 C-6.99 22.33 -7.98 22.66 -9 23 C-6.911 14.884 -3.647 7.529 0 0 Z " fill="#F9EEE3" transform="translate(391,405)"/>
<path d="M0 0 C1.747 0.214 3.497 0.401 5.25 0.562 C6.142 0.646 7.034 0.73 7.953 0.816 C8.629 0.877 9.304 0.938 10 1 C10 1.33 10 1.66 10 2 C8.782 2.049 7.564 2.098 6.309 2.148 C4.685 2.224 3.061 2.299 1.438 2.375 C0.238 2.421 0.238 2.421 -0.986 2.469 C-4.855 2.658 -8.086 3.025 -11.84 4.102 C-14.872 4.964 -16.134 5.146 -19 4 C-16.587 3.133 -14.171 2.281 -11.75 1.438 C-11.068 1.191 -10.386 0.944 -9.684 0.689 C-6.049 -0.563 -3.643 -1.358 0 0 Z " fill="#46B378" transform="translate(344,286)"/>
<path d="M0 0 C0.909 0.199 0.909 0.199 1.836 0.402 C7.877 1.676 13.847 2.503 20 3 C20 3.33 20 3.66 20 4 C18.588 4.091 18.588 4.091 17.148 4.184 C15.903 4.267 14.658 4.351 13.375 4.438 C12.145 4.519 10.915 4.6 9.648 4.684 C6.385 4.967 3.221 5.41 0 6 C0 4.02 0 2.04 0 0 Z " fill="#F7E7CE" transform="translate(430,324)"/>
<path d="M0 0 C1.207 0.031 1.207 0.031 2.438 0.062 C2.562 2.938 2.562 2.938 2.438 6.062 C1.777 6.722 1.118 7.382 0.438 8.062 C-0.882 8.062 -2.202 8.062 -3.562 8.062 C-3.605 5.73 -3.603 3.395 -3.562 1.062 C-2.562 0.062 -2.562 0.062 0 0 Z " fill="#E58C57" transform="translate(278.5625,235.9375)"/>
<path d="M0 0 C0.66 0 1.32 0 2 0 C1.369 4.154 -0.015 7.492 -1.875 11.25 C-2.388 12.307 -2.901 13.364 -3.43 14.453 C-5 17 -5 17 -8 18 C-6.652 13.64 -4.951 9.687 -2.875 5.625 C-2.336 4.565 -1.797 3.506 -1.242 2.414 C-0.832 1.617 -0.422 0.821 0 0 Z " fill="#EFF5ED" transform="translate(455,236)"/>
<path d="M0 0 C0.897 0.34 0.897 0.34 1.812 0.688 C1.482 2.007 1.153 3.327 0.812 4.688 C-0.178 4.688 -1.167 4.688 -2.188 4.688 C-1.857 6.007 -1.528 7.327 -1.188 8.688 C-2.178 8.688 -3.167 8.688 -4.188 8.688 C-4.875 5.875 -4.875 5.875 -5.188 2.688 C-3.624 0.137 -3 -0.429 0 0 Z " fill="#FAEFE5" transform="translate(178.1875,246.3125)"/>
<path d="M0 0 C2 3.75 2 3.75 2 6 C7.797 6.244 7.797 6.244 13 4 C11.25 7.875 11.25 7.875 9 9 C5.356 9.396 3.616 9.427 0.562 7.312 C-1 5 -1 5 -0.75 2.25 C-0.502 1.507 -0.255 0.765 0 0 Z " fill="#30AA68" transform="translate(494,185)"/>
<path d="M0 0 C0.66 0 1.32 0 2 0 C1.676 5.352 -1.497 8.283 -5 12 C-5.33 11.34 -5.66 10.68 -6 10 C-5.039 7.871 -5.039 7.871 -3.625 5.438 C-3.164 4.632 -2.702 3.826 -2.227 2.996 C-1 1 -1 1 0 0 Z " fill="#FAF2E8" transform="translate(372,415)"/>
<path d="M0 0 C0.66 0 1.32 0 2 0 C1.555 5.04 -0.713 7.376 -4 11 C-5 8 -5 8 -4.074 5.957 C-3.617 5.249 -3.159 4.542 -2.688 3.812 C-2.238 3.097 -1.788 2.382 -1.324 1.645 C-0.887 1.102 -0.45 0.559 0 0 Z " fill="#FBF4EC" transform="translate(305,415)"/>
<path d="M0 0 C5.155 0.483 8.816 3.186 13 6 C12.67 6.99 12.34 7.98 12 9 C9.997 7.692 7.998 6.379 6 5.062 C5.428 4.689 4.855 4.316 4.266 3.932 C2.826 2.981 1.411 1.993 0 1 C0 0.67 0 0.34 0 0 Z " fill="#3BAD6A" transform="translate(378,183)"/>
<path d="M0 0 C0 0.33 0 0.66 0 1 C-2.31 1.66 -4.62 2.32 -7 3 C-7.33 5.31 -7.66 7.62 -8 10 C-8.99 10.33 -9.98 10.66 -11 11 C-11.481 4.75 -11.481 4.75 -9.438 1.562 C-6.181 -0.525 -3.79 -0.292 0 0 Z " fill="#1CA35A" transform="translate(520,173)"/>
<path d="M0 0 C0.99 0.33 1.98 0.66 3 1 C2.526 2.052 2.051 3.104 1.562 4.188 C0.307 7.102 -0.522 9.847 -1 13 C-1.66 12.67 -2.32 12.34 -3 12 C-2.691 10.374 -2.378 8.749 -2.062 7.125 C-1.888 6.22 -1.714 5.315 -1.535 4.383 C-1 2 -1 2 0 0 Z M-1 13 C1 14 1 14 1 14 Z " fill="#FAEEE3" transform="translate(378,418)"/>
<path d="M0 0 C2.062 2.312 2.062 2.312 4 5 C3.67 5.99 3.34 6.98 3 8 C0.525 7.01 0.525 7.01 -2 6 C-1.34 4.02 -0.68 2.04 0 0 Z " fill="#F7E7CE" transform="translate(485,192)"/>
<path d="M0 0 C3.161 1.37 3.993 1.989 6 5 C6.125 7.688 6.125 7.688 6 10 C5.01 10 4.02 10 3 10 C2.711 8.886 2.423 7.773 2.125 6.625 C1.308 2.997 1.308 2.997 -1 1 C-0.67 0.67 -0.34 0.34 0 0 Z " fill="#3BAE70" transform="translate(520,173)"/>
<path d="M0 0 C-0.99 0.66 -1.98 1.32 -3 2 C-5.392 4.247 -7.169 6.254 -9 9 C-8.688 5.625 -8.688 5.625 -8 2 C-4.772 -0.152 -3.716 -0.201 0 0 Z " fill="#21A55E" transform="translate(502,179)"/>
<path d="M0 0 C0.99 0.33 1.98 0.66 3 1 C2.67 1.99 2.34 2.98 2 4 C1.34 2.68 0.68 1.36 0 0 Z M0 4 C0.688 5.812 0.688 5.812 1 8 C-0.438 9.75 -0.438 9.75 -2 11 C-2.33 10.34 -2.66 9.68 -3 9 C-1.562 6.375 -1.562 6.375 0 4 Z " fill="#F9EBDE" transform="translate(207,246)"/>
<path d="M0 0 C0.99 0.33 1.98 0.66 3 1 C1.688 3.938 1.688 3.938 0 7 C-0.99 7.33 -1.98 7.66 -3 8 C-1.125 2.25 -1.125 2.25 0 0 Z " fill="#F8E7DB" transform="translate(391,405)"/>
<path d="M0 0 C0.66 0 1.32 0 2 0 C1.502 3.688 0.899 5.605 -2 8 C-2.33 7.34 -2.66 6.68 -3 6 C-2.066 3.969 -1.068 1.965 0 0 Z " fill="#F1F0E7" transform="translate(455,236)"/>
<path d="M0 0 C0.99 0 1.98 0 3 0 C2.67 1.65 2.34 3.3 2 5 C0.68 5.33 -0.64 5.66 -2 6 C-1.34 4.02 -0.68 2.04 0 0 Z " fill="#E7ECDF" transform="translate(439,268)"/>
<path d="M0 0 C0.688 1.812 0.688 1.812 1 4 C-0.438 5.75 -0.438 5.75 -2 7 C-2.33 6.01 -2.66 5.02 -3 4 C-1.562 1.812 -1.562 1.812 0 0 Z " fill="#FBF3EC" transform="translate(205,256)"/>
<path d="M0 0 C0 0.66 0 1.32 0 2 C-3 4 -3 4 -6 4 C-5.67 3.01 -5.34 2.02 -5 1 C-3 0 -3 0 0 0 Z " fill="#F7E4D6" transform="translate(242,251)"/>
<path d="M0 0 C0 0.66 0 1.32 0 2 C-1.98 2.66 -3.96 3.32 -6 4 C-5.67 3.01 -5.34 2.02 -5 1 C-3 0 -3 0 0 0 Z " fill="#F8E8DC" transform="translate(104,251)"/>
<path d="M0 0 C0.99 0.33 1.98 0.66 3 1 C-0.75 4 -0.75 4 -3 4 C-2.67 3.01 -2.34 2.02 -2 1 C-1.34 0.67 -0.68 0.34 0 0 Z " fill="#FBF2E8" transform="translate(158,251)"/>
<path d="M0 0 C0.33 0.66 0.66 1.32 1 2 C1.66 2 2.32 2 3 2 C3 2.99 3 3.98 3 5 C2.01 5.33 1.02 5.66 0 6 C0 4.02 0 2.04 0 0 Z " fill="#F7E5D5" transform="translate(179,264)"/>
<path d="M0 0 C0.33 0.99 0.66 1.98 1 3 C0.34 3.66 -0.32 4.32 -1 5 C-1.66 5 -2.32 5 -3 5 C-2.625 3.062 -2.625 3.062 -2 1 C-1.34 0.67 -0.68 0.34 0 0 Z " fill="#E9ECE0" transform="translate(448,253)"/>
<path d="M0 0 C1.98 0.99 1.98 0.99 4 2 C4 2.99 4 3.98 4 5 C2 3.625 2 3.625 0 2 C0 1.34 0 0.68 0 0 Z " fill="#2CA966" transform="translate(510,184)"/>
</svg>