<?xml version="1.0" standalone="no"?>
<!DOCTYPE svg PUBLIC "-//W3C//DTD SVG 20010904//EN"
 "http://www.w3.org/TR/2001/REC-SVG-20010904/DTD/svg10.dtd">
<svg version="1.0" xmlns="http://www.w3.org/2000/svg"
 width="4608.000000pt" height="3072.000000pt" viewBox="0 0 4608.000000 3072.000000"
 preserveAspectRatio="xMidYMid meet">

<g transform="translate(0.000000,3072.000000) scale(0.100000,-0.100000)"
fill="#000000" stroke="none">
<path d="M31675 21610 c-3 -5 -1 -10 4 -10 6 0 11 5 11 10 0 6 -2 10 -4 10 -3
0 -8 -4 -11 -10z"/>
<path d="M32770 21253 c0 -20 3 -33 7 -30 3 4 13 1 21 -6 12 -9 16 -9 19 1 3
6 12 12 21 12 24 0 1 18 -28 22 -17 2 -25 9 -24 21 1 9 -2 17 -7 17 -5 0 -9
-16 -9 -37z"/>
<path d="M32726 21233 c-4 -4 -13 -8 -19 -8 -26 0 -107 -41 -107 -53 0 -7 -5
-10 -10 -7 -6 4 -8 16 -4 28 l6 22 -19 -22 c-11 -13 -22 -22 -24 -20 -2 1 6
-8 19 -20 22 -22 24 -22 47 -7 14 9 32 14 40 10 8 -3 15 -1 15 4 0 5 7 7 15 4
19 -8 68 23 59 37 -3 5 0 16 6 24 10 12 10 15 -2 15 -8 0 -18 -3 -22 -7z m-3
-39 c-4 -11 -7 -11 -19 1 -19 19 -18 24 5 18 12 -3 17 -11 14 -19z m-23 -15
c0 -14 -16 -11 -29 5 -10 12 -8 13 8 9 12 -3 21 -9 21 -14z"/>
<path d="M34180 20918 c0 -4 -7 -8 -15 -8 -8 0 -15 -4 -15 -10 0 -5 2 -10 4
-10 2 0 12 -3 20 -6 12 -5 15 -2 10 10 -3 9 -1 16 5 16 6 0 11 -4 11 -10 0
-16 14 -12 27 8 10 17 8 19 -18 19 -16 0 -29 -4 -29 -9z"/>
<path d="M33940 20890 c0 -5 7 -7 15 -4 8 4 15 8 15 10 0 2 -7 4 -15 4 -8 0
-15 -4 -15 -10z"/>
<path d="M33890 20850 c0 -5 -11 -10 -24 -10 -14 0 -28 -4 -31 -10 -3 -5 -1
-10 4 -10 6 0 11 -9 11 -20 0 -24 10 -25 36 -4 16 13 16 15 2 10 -10 -3 -18
-1 -18 5 0 6 9 13 20 16 20 5 29 33 10 33 -5 0 -10 -4 -10 -10z"/>
<path d="M34025 20850 c3 -5 10 -10 16 -10 5 0 9 5 9 10 0 6 -7 10 -16 10 -8
0 -12 -4 -9 -10z"/>
<path d="M33987 20843 c-4 -3 -7 -13 -7 -20 0 -12 3 -12 15 1 8 8 15 17 15 20
0 8 -15 7 -23 -1z"/>
<path d="M33787 20817 c-7 -20 17 -24 29 -5 4 6 3 8 -4 4 -5 -3 -12 -1 -14 6
-3 8 -7 6 -11 -5z"/>
<path d="M35380 20600 c0 -5 5 -10 10 -10 6 0 10 5 10 10 0 6 -4 10 -10 10 -5
0 -10 -4 -10 -10z"/>
<path d="M35288 20583 c-15 -10 -30 -23 -33 -31 -2 -7 0 -10 5 -7 6 3 10 1 10
-5 0 -6 5 -8 10 -5 6 3 10 -1 10 -9 0 -9 7 -16 15 -16 9 0 12 6 9 15 -4 8 -1
15 5 15 6 0 11 7 11 15 0 8 -5 15 -11 15 -6 0 -9 7 -5 15 7 18 7 18 -26 -2z"/>
<path d="M35340 20585 c0 -8 4 -15 10 -15 5 0 7 7 4 15 -4 8 -8 15 -10 15 -2
0 -4 -7 -4 -15z"/>
<path d="M35373 20562 c1 -12 6 -18 14 -15 16 6 13 25 -5 31 -6 2 -10 -6 -9
-16z"/>
<path d="M35416 20565 c4 -8 15 -15 25 -15 10 0 19 7 19 15 0 9 -9 15 -25 15
-18 0 -23 -4 -19 -15z"/>
<path d="M12325 18843 c11 -3 23 -10 27 -16 4 -6 10 -8 13 -5 13 13 -6 28 -33
27 -21 -1 -23 -2 -7 -6z"/>
<path d="M16835 18521 c-11 -4 -31 -12 -45 -18 -14 -6 -70 -21 -125 -34 -55
-12 -104 -25 -108 -29 -13 -11 64 -81 95 -87 16 -3 28 -9 28 -14 0 -5 6 -9 14
-9 8 0 17 -7 20 -16 3 -8 10 -13 15 -10 5 3 11 -3 14 -13 2 -10 17 -21 33 -25
22 -6 32 -3 45 13 10 12 24 21 33 21 9 0 24 4 34 9 9 5 25 12 35 15 26 8 21
34 -12 62 -36 30 -48 70 -27 93 10 11 12 21 5 34 -10 18 -21 20 -54 8z"/>
<path d="M16905 18300 c3 -5 8 -10 11 -10 2 0 4 5 4 10 0 6 -5 10 -11 10 -5 0
-7 -4 -4 -10z"/>
<path d="M17080 18182 c0 -5 -9 -12 -21 -15 -17 -5 -18 -8 -8 -25 10 -15 18
-18 35 -12 13 5 26 4 33 -3 9 -9 11 -6 8 11 -3 22 -47 63 -47 44z"/>
<path d="M14382 18051 c-10 -6 -7 -10 12 -13 16 -3 25 -1 23 5 -5 15 -20 18
-35 8z"/>
<path d="M16941 17811 c-8 -5 -11 -16 -6 -30 5 -16 14 -21 41 -21 21 0 33 4
29 10 -3 6 1 10 10 10 9 0 13 -4 10 -10 -3 -5 -2 -10 4 -10 18 0 23 20 7 26
-9 3 -16 12 -16 20 0 16 -56 19 -79 5z"/>
<path d="M22887 17343 c-15 -14 -6 -31 13 -26 11 3 20 12 20 19 0 14 -22 19
-33 7z"/>
<path d="M22828 17323 c7 -3 16 -2 19 1 4 3 -2 6 -13 5 -11 0 -14 -3 -6 -6z"/>
<path d="M18690 15080 c0 -5 7 -10 16 -10 8 0 12 5 9 10 -3 6 -10 10 -16 10
-5 0 -9 -4 -9 -10z"/>
<path d="M18767 15061 c-15 -15 -15 -19 -4 -24 17 -6 37 11 37 30 0 18 -11 15
-33 -6z"/>
<path d="M18725 15050 c3 -5 8 -10 11 -10 2 0 4 5 4 10 0 6 -5 10 -11 10 -5 0
-7 -4 -4 -10z"/>
<path d="M18795 15030 c3 -5 8 -10 11 -10 2 0 4 5 4 10 0 6 -5 10 -11 10 -5 0
-7 -4 -4 -10z"/>
<path d="M21560 11821 c-8 -6 -18 -7 -22 -5 -4 3 -8 -7 -9 -23 0 -27 -1 -27
-9 -5 -12 27 -24 28 -49 1 -18 -20 -20 -20 -29 -2 -6 10 -14 14 -18 10 -5 -4
-3 -17 4 -27 16 -26 15 -30 -4 -30 -9 0 -25 -10 -35 -22 -19 -21 -26 -43 -11
-34 5 3 32 6 60 7 29 2 52 7 52 12 0 5 7 3 17 -4 9 -8 18 -13 20 -11 1 1 8 2
15 2 6 0 4 -6 -6 -13 -27 -19 -13 -57 17 -49 12 3 27 12 33 20 15 20 58 11 63
-13 4 -21 29 -44 49 -45 8 0 11 9 7 28 -4 22 -4 24 4 7 5 -11 10 -17 12 -12 5
21 4 33 -4 45 -7 8 -4 12 11 12 17 0 20 -6 18 -34 -3 -34 -3 -34 33 -29 20 2
32 1 26 -4 -18 -15 -17 -36 1 -29 9 3 23 1 30 -5 9 -7 36 -10 69 -7 47 4 56 2
61 -15 4 -13 12 -17 26 -14 17 5 19 2 14 -18 -5 -18 0 -25 24 -35 27 -11 31
-10 54 16 20 23 25 25 26 12 0 -10 -5 -18 -11 -18 -5 0 -7 -5 -4 -11 4 -6 13
-8 21 -5 7 3 16 1 19 -4 4 -6 11 -10 18 -10 8 0 8 3 -1 12 -7 7 -12 20 -12 31
0 10 -4 15 -10 12 -5 -3 -10 -1 -10 5 0 7 7 9 16 6 10 -4 25 1 35 10 15 14 21
14 34 4 8 -7 15 -23 15 -36 0 -13 5 -24 11 -24 7 0 9 -10 7 -25 -4 -21 -2 -24
13 -20 10 3 27 0 38 -7 17 -10 25 -10 42 1 18 11 23 11 30 -1 5 -7 9 -19 9
-27 0 -7 6 -11 14 -8 8 3 17 1 20 -6 2 -7 5 -2 5 10 1 12 -4 25 -9 28 -6 4 -9
24 -6 46 3 26 -1 44 -10 53 -8 8 -14 19 -14 24 0 5 -25 15 -55 22 -31 7 -58
17 -61 22 -3 5 -9 6 -14 3 -4 -2 -29 2 -56 10 -26 8 -51 12 -55 9 -4 -2 -10 0
-14 6 -4 6 -11 7 -17 4 -11 -7 -76 10 -118 30 -54 27 -113 41 -118 28 -2 -7
-13 -2 -30 13 -33 30 -178 105 -209 108 -13 0 -25 7 -27 14 -6 15 -16 16 -36
4z m238 -163 c19 -19 14 -28 -13 -28 -27 0 -28 1 -19 24 7 19 16 20 32 4z m72
-72 c0 -3 -4 -8 -10 -11 -5 -3 -10 -1 -10 4 0 6 5 11 10 11 6 0 10 -2 10 -4z"/>
<path d="M21405 11640 c-3 -5 -1 -10 4 -10 6 0 11 5 11 10 0 6 -2 10 -4 10 -3
0 -8 -4 -11 -10z"/>
<path d="M22405 11490 c3 -5 8 -10 11 -10 2 0 4 5 4 10 0 6 -5 10 -11 10 -5 0
-7 -4 -4 -10z"/>
<path d="M22235 11400 c4 -6 11 -8 16 -5 14 9 11 15 -7 15 -8 0 -12 -5 -9 -10z"/>
<path d="M22070 11379 c0 -5 5 -7 10 -4 6 3 10 8 10 11 0 2 -4 4 -10 4 -5 0
-10 -5 -10 -11z"/>
</g>
</svg>
